<svg id="svg" version="1.1" xmlns="http://www.w3.org/2000/svg" xmlns:xlink="http://www.w3.org/1999/xlink" width="400" height="300" viewBox="0, 0, 400,300"><g id="svgg"><path id="path0" d="M167.367 61.734 C 166.748 61.799,166.242 61.987,166.242 62.151 C 166.242 62.316,166.137 62.386,166.008 62.307 C 165.791 62.172,163.162 62.958,162.491 63.358 C 162.326 63.457,161.684 63.700,161.065 63.900 C 160.446 64.099,159.940 64.383,159.940 64.530 C 159.940 64.677,159.737 64.720,159.490 64.625 C 159.242 64.530,159.040 64.605,159.040 64.792 C 159.040 64.978,158.702 65.259,158.290 65.416 C 157.877 65.573,157.539 65.807,157.539 65.936 C 157.539 66.065,157.134 66.350,156.637 66.569 C 156.141 66.789,155.790 67.058,155.856 67.168 C 155.923 67.277,155.631 67.626,155.209 67.943 C 154.711 68.316,154.514 68.369,154.650 68.093 C 154.766 67.859,154.687 67.915,154.475 68.218 C 153.822 69.150,153.284 69.787,153.484 69.392 C 153.588 69.186,153.602 69.017,153.514 69.017 C 153.426 69.017,153.142 69.426,152.884 69.926 C 152.625 70.426,152.026 71.180,151.552 71.603 C 151.077 72.025,150.604 72.713,150.499 73.130 C 150.394 73.548,150.225 73.806,150.124 73.704 C 149.858 73.439,147.114 78.954,146.873 80.237 C 146.762 80.830,146.562 81.248,146.429 81.165 C 146.296 81.083,146.016 82.225,145.806 83.702 C 145.597 85.180,145.321 86.324,145.193 86.244 C 145.064 86.165,144.946 86.746,144.931 87.536 C 144.756 96.646,144.853 100.522,145.257 100.524 C 145.350 100.525,145.584 101.697,145.776 103.129 C 145.967 104.561,146.233 105.811,146.365 105.905 C 146.677 106.126,147.427 109.837,147.205 110.059 C 147.113 110.152,147.037 110.070,147.037 109.877 C 147.037 109.665,146.527 109.527,145.736 109.527 C 145.021 109.527,144.335 109.426,144.211 109.302 C 144.087 109.179,143.626 109.058,143.186 109.034 C 142.746 109.011,142.386 108.968,142.386 108.939 C 142.386 108.910,142.003 108.836,141.535 108.774 C 141.067 108.713,140.376 108.461,140.000 108.214 C 139.490 107.880,139.229 107.853,138.975 108.107 C 138.721 108.361,138.635 108.330,138.635 107.987 C 138.635 107.734,138.432 107.527,138.185 107.527 C 137.937 107.527,137.732 107.673,137.730 107.852 C 137.727 108.031,137.594 107.974,137.434 107.727 C 137.250 107.442,137.142 107.411,137.139 107.642 C 137.136 107.844,136.932 107.930,136.684 107.835 C 136.366 107.713,136.227 107.870,136.210 108.370 C 136.133 110.593,135.657 113.128,135.317 113.128 C 135.172 113.128,135.139 113.353,135.244 113.628 C 135.369 113.952,135.319 114.054,135.102 113.921 C 134.883 113.785,134.768 114.051,134.768 114.697 C 134.769 115.623,134.597 116.998,134.439 117.329 C 134.399 117.412,134.394 117.798,134.426 118.188 C 134.460 118.593,134.358 118.818,134.187 118.713 C 134.012 118.604,133.954 118.775,134.046 119.129 C 134.133 119.460,134.074 119.730,133.917 119.730 C 133.759 119.730,133.654 120.140,133.684 120.642 C 133.714 121.143,133.625 121.624,133.486 121.710 C 133.347 121.796,133.233 121.700,133.233 121.498 C 133.233 121.296,133.143 121.221,133.033 121.331 C 132.923 121.441,133.024 121.891,133.258 122.330 C 133.590 122.954,133.601 123.157,133.308 123.255 C 133.102 123.324,132.933 123.581,132.933 123.826 C 132.933 124.135,133.117 124.213,133.533 124.081 C 133.891 123.967,134.134 124.027,134.134 124.229 C 134.134 124.414,134.289 124.470,134.479 124.353 C 134.669 124.235,135.007 124.388,135.229 124.693 C 135.452 124.997,135.634 125.085,135.634 124.889 C 135.634 124.692,135.904 124.531,136.234 124.531 C 136.599 124.531,136.834 124.731,136.834 125.041 C 136.834 125.438,136.914 125.471,137.194 125.191 C 137.614 124.771,138.148 124.705,137.902 125.103 C 137.809 125.253,137.989 125.309,138.300 125.227 C 138.612 125.146,138.954 125.220,139.061 125.392 C 139.167 125.564,139.453 125.629,139.697 125.535 C 139.940 125.442,140.488 125.594,140.914 125.872 C 141.339 126.151,141.765 126.302,141.859 126.208 C 141.953 126.114,142.237 126.204,142.491 126.409 C 142.858 126.707,142.905 126.706,142.725 126.406 C 142.485 126.007,143.111 126.036,144.120 126.472 C 144.413 126.599,145.055 126.719,145.545 126.739 C 146.043 126.759,146.437 126.942,146.437 127.154 C 146.437 127.362,146.580 127.532,146.754 127.532 C 146.929 127.532,146.989 127.397,146.887 127.232 C 146.678 126.894,147.055 126.842,147.761 127.113 C 148.021 127.213,148.159 127.416,148.068 127.563 C 147.976 127.711,148.120 127.832,148.387 127.832 C 148.654 127.832,148.789 127.697,148.687 127.532 C 148.585 127.367,148.645 127.232,148.819 127.232 C 148.994 127.232,149.137 127.344,149.137 127.482 C 149.137 127.619,149.306 127.742,149.512 127.755 C 149.719 127.768,150.360 127.861,150.938 127.963 C 151.515 128.064,152.258 128.182,152.588 128.226 C 152.918 128.270,153.147 128.493,153.096 128.720 C 153.023 129.051,153.093 129.060,153.445 128.768 C 153.744 128.520,153.947 128.504,154.080 128.718 C 154.186 128.891,154.409 129.032,154.574 129.032 C 154.739 129.032,154.792 128.899,154.691 128.736 C 154.587 128.567,154.704 128.514,154.962 128.613 C 155.212 128.709,155.498 129.045,155.598 129.360 C 155.698 129.675,155.900 129.932,156.047 129.932 C 156.194 129.932,156.477 130.473,156.675 131.133 C 156.872 131.793,157.142 132.333,157.275 132.333 C 157.407 132.333,157.676 132.869,157.872 133.524 C 158.068 134.178,158.323 134.655,158.439 134.584 C 158.555 134.512,158.833 135.023,159.057 135.719 C 159.281 136.415,159.538 137.052,159.627 137.134 C 160.290 137.746,160.925 138.705,160.540 138.514 C 160.192 138.341,160.198 138.380,160.568 138.687 C 160.831 138.906,161.213 139.591,161.416 140.210 C 161.620 140.829,161.897 141.335,162.031 141.335 C 162.250 141.335,162.660 142.483,162.646 143.059 C 162.637 143.420,161.942 143.352,161.299 142.927 C 160.973 142.712,160.568 142.538,160.398 142.540 C 160.229 142.543,160.293 142.676,160.540 142.836 C 160.788 142.996,160.852 143.129,160.682 143.131 C 160.512 143.134,160.104 142.947,159.774 142.716 C 159.024 142.190,158.104 142.029,157.614 142.336 C 157.405 142.467,157.239 142.435,157.239 142.263 C 157.239 142.093,157.054 142.025,156.828 142.112 C 156.602 142.199,156.205 142.059,155.947 141.800 C 155.657 141.511,155.405 141.447,155.290 141.633 C 155.187 141.799,154.968 141.935,154.803 141.935 C 154.638 141.935,154.601 141.778,154.720 141.584 C 154.865 141.350,154.775 141.296,154.447 141.421 C 154.178 141.525,153.872 141.471,153.768 141.302 C 153.663 141.133,153.377 141.072,153.131 141.166 C 152.885 141.260,152.527 141.236,152.336 141.111 C 152.145 140.987,151.785 140.871,151.538 140.855 C 151.290 140.838,150.776 140.804,150.395 140.780 C 150.014 140.755,149.785 140.600,149.887 140.435 C 149.989 140.270,149.930 140.135,149.755 140.135 C 149.580 140.135,149.437 140.286,149.437 140.470 C 149.437 140.676,149.155 140.619,148.703 140.323 C 148.297 140.057,147.738 139.930,147.453 140.039 C 147.088 140.180,147.006 140.128,147.171 139.860 C 147.336 139.594,147.196 139.500,146.695 139.542 C 145.258 139.662,144.304 139.529,144.486 139.235 C 144.749 138.810,144.234 138.862,143.752 139.310 C 143.422 139.616,143.381 139.588,143.532 139.160 C 143.634 138.871,143.598 138.635,143.451 138.635 C 143.305 138.635,143.129 138.803,143.060 139.010 C 142.959 139.309,142.842 139.309,142.482 139.012 C 142.233 138.807,141.941 138.729,141.833 138.837 C 141.724 138.946,141.635 138.861,141.635 138.648 C 141.635 138.349,141.539 138.341,141.212 138.612 C 140.877 138.891,140.691 138.823,140.312 138.282 C 140.050 137.907,139.835 137.766,139.835 137.968 C 139.835 138.170,139.557 138.335,139.217 138.335 C 138.842 138.335,138.680 138.204,138.805 138.002 C 138.944 137.776,138.795 137.738,138.335 137.884 C 137.904 138.021,137.728 137.988,137.849 137.792 C 137.968 137.599,137.695 137.540,137.104 137.633 C 136.483 137.731,136.237 137.672,136.370 137.457 C 136.641 137.019,136.142 137.047,135.694 137.494 C 135.496 137.692,135.334 137.725,135.334 137.566 C 135.334 137.408,134.921 137.261,134.417 137.240 C 133.912 137.220,133.304 136.951,133.066 136.644 C 132.736 136.218,132.672 136.201,132.800 136.572 C 132.945 136.992,132.800 137.029,131.759 136.839 C 131.093 136.717,130.614 136.722,130.693 136.850 C 130.772 136.978,130.718 137.128,130.574 137.184 C 130.430 137.239,130.212 137.605,130.090 137.997 C 129.937 138.489,129.972 138.646,130.203 138.503 C 130.524 138.305,130.017 139.772,129.639 140.135 C 129.403 140.362,129.288 141.023,129.181 142.784 C 129.114 143.885,128.912 144.522,128.533 144.832 C 128.230 145.079,128.151 145.195,128.357 145.091 C 128.597 144.969,128.732 145.123,128.732 145.519 C 128.732 145.858,128.610 146.137,128.460 146.137 C 128.311 146.137,128.259 146.407,128.346 146.738 C 128.432 147.069,128.318 147.568,128.092 147.846 C 127.819 148.183,127.806 148.278,128.054 148.129 C 128.306 147.977,128.368 148.055,128.247 148.372 C 128.148 148.628,127.965 148.837,127.840 148.837 C 127.715 148.837,127.609 149.209,127.605 149.662 C 127.582 151.973,127.527 152.295,127.232 151.838 C 127.057 151.568,126.939 151.530,126.936 151.745 C 126.934 151.942,127.069 152.187,127.237 152.291 C 127.404 152.395,127.482 152.577,127.408 152.695 C 127.287 152.892,128.033 153.056,129.407 153.136 C 129.696 153.153,129.932 153.340,129.932 153.553 C 129.932 153.765,130.075 153.938,130.250 153.938 C 130.425 153.938,130.471 153.782,130.353 153.591 C 130.203 153.348,130.355 153.302,130.861 153.437 C 131.258 153.543,131.692 153.632,131.826 153.634 C 131.959 153.637,131.967 153.807,131.843 154.014 C 131.690 154.268,131.780 154.257,132.125 153.977 C 132.487 153.683,132.633 153.668,132.633 153.922 C 132.633 154.142,132.863 154.206,133.233 154.089 C 133.591 153.975,133.833 154.035,133.833 154.236 C 133.833 154.422,133.959 154.496,134.113 154.401 C 134.266 154.306,134.473 154.360,134.573 154.521 C 134.672 154.681,134.965 154.731,135.224 154.632 C 135.483 154.532,135.814 154.640,135.960 154.870 C 136.186 155.228,136.226 155.227,136.229 154.867 C 136.233 154.518,136.325 154.524,136.759 154.902 C 137.048 155.154,137.487 155.369,137.734 155.382 C 139.110 155.450,140.541 155.719,140.701 155.938 C 140.865 156.161,141.488 156.328,142.386 156.390 C 142.551 156.401,142.905 156.319,143.172 156.208 C 143.443 156.094,143.845 156.190,144.079 156.425 C 144.310 156.656,144.732 156.810,145.018 156.768 C 145.305 156.726,145.536 156.886,145.536 157.126 C 145.536 157.468,145.665 157.492,146.137 157.239 C 146.510 157.040,146.935 157.020,147.262 157.188 C 147.551 157.337,147.956 157.398,148.162 157.324 C 148.368 157.250,148.537 157.327,148.537 157.495 C 148.537 157.662,148.881 157.737,149.302 157.661 C 149.723 157.585,150.229 157.624,150.427 157.748 C 150.626 157.873,151.328 158.012,151.988 158.057 C 152.648 158.103,153.229 158.261,153.278 158.408 C 153.327 158.555,153.629 158.607,153.949 158.524 C 154.288 158.435,154.599 158.547,154.692 158.791 C 154.792 159.050,155.254 159.198,155.902 159.176 C 156.478 159.157,157.081 159.299,157.241 159.492 C 157.417 159.703,158.081 159.793,158.918 159.718 C 159.857 159.634,160.239 159.699,160.104 159.917 C 159.994 160.095,160.014 160.254,160.147 160.272 C 160.281 160.289,160.795 160.353,161.290 160.414 C 163.679 160.707,164.303 160.793,164.441 160.850 C 164.524 160.884,164.692 160.895,164.816 160.876 C 164.940 160.856,165.041 160.990,165.041 161.172 C 165.041 161.355,165.251 161.424,165.507 161.326 C 165.763 161.228,165.894 161.274,165.798 161.429 C 165.698 161.591,166.079 161.667,166.696 161.607 C 167.939 161.487,168.999 161.706,168.792 162.041 C 168.713 162.168,168.917 162.343,169.246 162.428 C 169.586 162.517,169.844 162.435,169.847 162.237 C 169.850 162.043,169.980 162.089,170.143 162.341 C 170.347 162.657,170.435 162.676,170.438 162.405 C 170.442 162.112,170.588 162.097,171.043 162.341 C 171.373 162.517,171.649 162.556,171.656 162.426 C 171.663 162.297,171.939 162.701,172.268 163.325 C 172.598 163.949,172.773 164.611,172.659 164.797 C 172.539 164.991,172.585 165.051,172.767 164.938 C 173.087 164.740,173.783 167.506,173.759 168.884 C 173.753 169.264,173.866 169.502,174.010 169.413 C 174.155 169.324,174.369 170.535,174.487 172.105 C 174.731 175.356,174.457 178.650,173.968 178.348 C 173.781 178.232,173.739 178.295,173.867 178.501 C 174.061 178.816,171.806 183.346,171.454 183.346 C 171.373 183.346,171.409 183.177,171.533 182.971 C 171.686 182.716,171.595 182.728,171.250 183.007 C 170.971 183.234,170.743 183.597,170.743 183.815 C 170.743 184.033,170.587 184.307,170.396 184.425 C 170.164 184.568,170.129 184.500,170.291 184.217 C 170.424 183.986,170.091 184.235,169.552 184.771 C 169.012 185.308,168.384 185.746,168.156 185.746 C 167.928 185.746,167.742 185.860,167.742 185.998 C 167.742 186.356,166.346 186.947,165.502 186.947 C 165.111 186.947,164.739 187.102,164.676 187.292 C 164.530 187.730,158.470 187.773,158.185 187.339 C 158.078 187.174,157.479 186.959,156.854 186.860 C 155.528 186.651,152.438 185.205,152.438 184.793 C 152.438 184.638,152.303 184.594,152.138 184.696 C 151.973 184.798,151.838 184.739,151.838 184.564 C 151.838 184.389,151.642 184.246,151.403 184.246 C 151.164 184.246,150.636 183.942,150.230 183.571 C 149.823 183.200,149.183 182.693,148.808 182.446 C 148.432 182.198,147.806 181.665,147.417 181.262 C 145.543 179.319,145.536 179.350,145.536 189.799 C 145.536 194.997,145.639 199.250,145.765 199.250 C 145.890 199.250,146.360 199.590,146.809 200.007 C 147.258 200.423,147.729 200.779,147.856 200.798 C 148.536 200.902,149.737 201.440,149.737 201.641 C 149.737 201.768,150.379 202.051,151.163 202.270 C 151.947 202.489,152.922 202.840,153.330 203.051 C 153.739 203.262,154.684 203.522,155.431 203.630 C 156.178 203.738,156.979 203.978,157.210 204.164 C 157.915 204.728,171.043 204.607,171.043 204.036 C 171.043 203.822,173.075 203.301,173.518 203.400 C 173.642 203.428,173.743 203.320,173.743 203.160 C 173.743 203.000,173.946 202.947,174.194 203.042 C 174.441 203.137,174.644 203.095,174.644 202.948 C 174.644 202.802,175.251 202.502,175.994 202.283 C 176.737 202.064,177.344 201.793,177.344 201.682 C 177.344 201.571,177.749 201.240,178.245 200.948 C 178.740 200.655,179.145 200.485,179.145 200.570 C 179.145 200.654,179.456 200.425,179.836 200.061 C 180.934 199.011,182.085 198.091,182.195 198.177 C 182.305 198.262,184.164 196.356,184.308 196.011 C 184.356 195.894,184.497 195.833,184.621 195.874 C 184.745 195.915,184.846 195.679,184.846 195.349 C 184.846 195.019,184.947 194.782,185.071 194.824 C 185.430 194.943,186.518 193.725,186.975 192.693 C 187.205 192.173,187.479 191.748,187.584 191.748 C 187.688 191.748,187.942 191.343,188.147 190.848 C 188.352 190.353,188.624 189.947,188.751 189.947 C 188.878 189.947,189.074 189.576,189.186 189.122 C 189.297 188.668,189.640 187.757,189.948 187.097 C 190.601 185.694,190.977 184.282,190.868 183.646 C 190.825 183.398,190.904 183.308,191.042 183.444 C 191.336 183.734,192.089 179.817,192.056 178.170 C 192.044 177.551,192.162 177.044,192.319 177.044 C 192.486 177.044,192.608 175.241,192.613 172.693 C 192.618 170.123,192.504 168.342,192.335 168.342 C 191.919 168.342,191.982 167.514,192.408 167.372 C 192.949 167.191,195.649 167.783,195.649 168.082 C 195.649 168.225,195.885 168.340,196.174 168.337 C 196.623 168.334,196.634 168.291,196.249 168.042 C 196.002 167.882,195.951 167.749,196.137 167.747 C 196.323 167.744,196.655 167.958,196.875 168.223 C 197.163 168.570,197.593 168.662,198.412 168.552 C 199.038 168.468,199.625 168.521,199.718 168.671 C 199.810 168.820,200.155 168.942,200.486 168.942 C 200.816 168.942,201.002 169.077,200.900 169.242 C 200.798 169.407,200.933 169.542,201.200 169.542 C 201.467 169.542,201.603 169.409,201.502 169.246 C 201.398 169.076,201.517 169.025,201.783 169.127 C 202.038 169.225,202.160 169.447,202.052 169.620 C 201.926 169.825,202.006 169.843,202.279 169.672 C 202.934 169.264,203.751 169.211,203.751 169.576 C 203.751 169.758,203.961 169.826,204.217 169.728 C 204.492 169.622,204.605 169.675,204.493 169.856 C 204.373 170.050,204.704 170.118,205.402 170.041 C 206.171 169.956,206.550 170.051,206.668 170.356 C 206.805 170.715,206.885 170.722,207.116 170.393 C 207.306 170.122,207.442 170.100,207.535 170.324 C 207.611 170.506,208.004 170.592,208.409 170.515 C 208.902 170.420,209.206 170.533,209.330 170.857 C 209.432 171.122,209.641 171.262,209.795 171.167 C 210.222 170.903,212.479 171.358,212.287 171.670 C 212.194 171.820,212.255 171.943,212.423 171.943 C 212.592 171.943,212.891 172.483,213.089 173.143 C 213.287 173.803,213.562 174.344,213.701 174.344 C 213.840 174.344,213.953 174.552,213.953 174.806 C 213.953 175.060,214.226 175.802,214.560 176.456 C 214.893 177.110,215.088 177.644,214.993 177.644 C 214.898 177.644,215.030 177.945,215.287 178.311 C 215.544 178.678,215.754 179.286,215.754 179.662 C 215.754 180.038,215.877 180.345,216.027 180.345 C 216.178 180.345,216.267 180.574,216.226 180.855 C 216.185 181.135,216.331 181.709,216.551 182.130 C 216.771 182.551,216.951 183.105,216.952 183.361 C 216.953 183.617,217.123 184.008,217.329 184.230 C 217.633 184.557,217.624 184.588,217.283 184.394 C 216.971 184.216,216.930 184.263,217.124 184.575 C 217.269 184.807,217.415 185.131,217.450 185.296 C 218.005 187.982,218.109 189.059,218.061 191.627 C 218.023 193.682,217.872 194.817,217.593 195.153 C 217.366 195.426,217.258 195.649,217.352 195.649 C 217.661 195.649,216.650 197.760,215.742 199.014 C 215.253 199.688,214.853 200.119,214.852 199.970 C 214.851 199.821,214.581 200.105,214.254 200.600 C 213.926 201.095,213.656 201.408,213.655 201.295 C 213.654 201.183,213.162 201.554,212.561 202.121 C 211.960 202.687,211.362 203.151,211.230 203.151 C 211.099 203.151,210.612 203.308,210.147 203.499 C 209.682 203.691,209.187 203.821,209.046 203.789 C 208.905 203.756,208.634 203.853,208.446 204.003 C 207.340 204.884,202.444 204.599,199.755 203.497 C 199.291 203.307,198.717 203.151,198.480 203.151 C 198.243 203.151,198.050 203.018,198.050 202.856 C 198.050 202.695,197.717 202.479,197.312 202.377 C 196.906 202.275,196.418 202.004,196.227 201.774 C 196.037 201.545,195.761 201.431,195.615 201.521 C 195.469 201.612,195.349 201.543,195.349 201.368 C 195.349 201.193,195.154 201.050,194.916 201.050 C 194.678 201.050,194.294 200.781,194.064 200.452 C 193.833 200.123,193.584 199.915,193.509 199.989 C 193.434 200.064,192.636 199.460,191.735 198.647 C 188.921 196.109,189.044 195.753,189.068 206.377 C 189.087 214.644,189.207 216.730,189.659 216.685 C 190.102 216.641,191.148 217.065,191.148 217.289 C 191.148 217.435,191.249 217.534,191.373 217.508 C 191.602 217.461,193.087 218.142,194.449 218.918 C 194.861 219.154,195.435 219.348,195.724 219.350 C 196.013 219.353,196.249 219.504,196.249 219.687 C 196.249 219.870,196.447 219.943,196.690 219.850 C 196.932 219.757,197.199 219.793,197.283 219.929 C 197.367 220.065,198.006 220.267,198.703 220.379 C 199.400 220.490,200.166 220.744,200.406 220.943 C 201.055 221.482,213.842 221.429,214.254 220.886 C 214.336 220.778,215.214 220.524,216.204 220.322 C 217.194 220.120,218.049 219.820,218.104 219.655 C 218.160 219.490,218.445 219.355,218.738 219.355 C 219.031 219.355,219.763 219.021,220.363 218.614 C 220.964 218.206,221.455 217.948,221.455 218.040 C 221.455 218.131,222.029 217.774,222.731 217.246 C 223.432 216.717,224.445 216.017,224.981 215.690 C 225.517 215.363,225.880 214.973,225.788 214.824 C 225.696 214.675,225.768 214.554,225.947 214.554 C 226.341 214.554,228.413 212.710,228.228 212.524 C 228.156 212.452,228.549 211.941,229.102 211.388 C 229.655 210.835,230.196 210.104,230.304 209.763 C 230.412 209.422,230.629 209.223,230.787 209.320 C 230.944 209.417,231.046 209.386,231.013 209.250 C 230.931 208.909,231.707 207.352,231.959 207.352 C 232.071 207.352,232.325 206.812,232.523 206.152 C 232.720 205.491,232.986 204.951,233.114 204.951 C 233.241 204.951,233.518 204.276,233.729 203.451 C 233.941 202.626,234.214 201.950,234.336 201.950 C 234.459 201.950,234.582 201.782,234.611 201.575 C 235.015 198.653,235.432 196.660,235.672 196.497 C 236.217 196.128,236.085 182.973,235.525 181.845 C 235.403 181.598,235.151 180.383,234.965 179.145 C 234.780 177.907,234.500 176.766,234.343 176.609 C 234.187 176.452,234.061 176.182,234.063 176.009 C 234.066 175.836,234.192 175.890,234.343 176.130 C 234.495 176.370,234.999 176.588,235.464 176.616 C 235.929 176.644,236.621 176.684,237.002 176.705 C 237.383 176.727,237.632 176.846,237.555 176.970 C 237.479 177.094,238.105 177.238,238.947 177.289 C 240.635 177.391,241.057 177.545,240.797 177.965 C 240.702 178.119,240.835 178.245,241.093 178.245 C 241.350 178.245,241.560 178.102,241.560 177.927 C 241.560 177.752,241.699 177.695,241.868 177.799 C 242.037 177.904,242.154 177.878,242.128 177.742 C 242.023 177.197,242.555 175.544,242.835 175.544 C 243.009 175.544,242.986 175.365,242.781 175.118 C 242.502 174.782,242.541 174.625,242.969 174.373 C 243.303 174.177,243.396 173.966,243.211 173.824 C 242.798 173.507,242.840 172.644,243.289 172.195 C 243.494 171.990,243.661 171.337,243.661 170.743 C 243.661 170.149,243.823 169.500,244.021 169.302 C 244.301 169.022,244.284 168.940,243.946 168.933 C 243.629 168.926,243.670 168.803,244.093 168.483 C 244.414 168.240,244.507 168.042,244.301 168.042 C 244.077 168.042,244.019 167.891,244.158 167.667 C 244.286 167.461,244.396 167.022,244.403 166.692 C 244.410 166.362,244.524 165.923,244.656 165.716 C 244.788 165.510,244.800 165.341,244.682 165.341 C 244.565 165.341,244.725 165.048,245.040 164.690 C 245.354 164.331,245.443 164.137,245.236 164.257 C 244.985 164.404,244.861 164.266,244.861 163.841 C 244.861 163.491,244.984 163.281,245.133 163.374 C 245.283 163.466,245.329 163.250,245.236 162.894 C 245.139 162.522,245.188 162.322,245.352 162.423 C 245.509 162.520,245.656 162.338,245.680 162.020 C 245.705 161.701,245.590 161.440,245.425 161.440 C 245.260 161.440,245.224 161.598,245.343 161.792 C 245.462 161.985,245.205 161.884,244.770 161.567 C 244.335 161.250,243.976 160.889,243.970 160.765 C 243.956 160.419,243.120 160.498,242.464 160.908 C 241.970 161.216,241.808 161.184,241.461 160.709 C 241.206 160.360,240.857 160.215,240.554 160.332 C 240.282 160.436,240.060 160.424,240.060 160.306 C 240.059 160.187,239.428 160.073,238.657 160.052 C 237.666 160.025,237.136 159.850,236.845 159.453 C 236.502 158.984,236.392 158.963,236.170 159.322 C 235.975 159.638,235.799 159.665,235.507 159.427 C 235.158 159.142,233.467 158.784,232.315 158.751 C 232.099 158.745,231.992 158.627,232.077 158.490 C 232.162 158.352,232.041 158.240,231.808 158.240 C 231.575 158.240,231.469 158.386,231.573 158.565 C 231.676 158.743,231.445 158.620,231.058 158.290 C 230.671 157.959,230.453 157.858,230.574 158.065 C 230.694 158.271,230.650 158.440,230.475 158.440 C 230.301 158.440,230.158 158.326,230.158 158.188 C 230.158 158.049,229.752 157.960,229.257 157.989 C 228.762 158.019,228.357 157.922,228.357 157.774 C 228.357 157.625,228.231 157.582,228.078 157.677 C 227.924 157.772,227.712 157.710,227.607 157.539 C 227.502 157.369,227.256 157.321,227.061 157.433 C 226.866 157.544,226.803 157.529,226.921 157.398 C 227.039 157.267,226.976 156.874,226.782 156.525 C 226.587 156.175,226.423 155.783,226.417 155.653 C 226.411 155.523,226.204 155.289,225.956 155.132 C 225.709 154.976,225.612 154.846,225.742 154.843 C 225.872 154.841,225.809 154.535,225.603 154.164 C 225.396 153.792,225.223 153.382,225.217 153.252 C 225.211 153.123,225.004 152.888,224.756 152.732 C 224.509 152.575,224.412 152.445,224.542 152.443 C 224.671 152.440,224.609 152.134,224.402 151.763 C 224.196 151.392,224.022 150.982,224.017 150.852 C 224.011 150.722,223.857 150.519,223.674 150.402 C 223.492 150.284,223.178 149.681,222.976 149.062 C 222.774 148.443,222.518 147.936,222.407 147.935 C 222.156 147.932,221.455 146.454,221.455 145.927 C 221.455 145.712,221.343 145.536,221.206 145.536 C 221.068 145.536,220.811 145.064,220.634 144.486 C 220.302 143.404,220.552 142.913,221.223 143.328 C 221.425 143.452,221.864 143.571,222.198 143.590 C 223.869 143.687,224.156 143.767,224.156 144.136 C 224.156 144.356,224.353 144.536,224.593 144.536 C 224.833 144.536,224.960 144.424,224.875 144.286 C 224.790 144.149,224.939 144.036,225.206 144.036 C 225.473 144.036,225.609 144.169,225.509 144.333 C 225.403 144.503,225.524 144.553,225.791 144.451 C 226.054 144.350,226.257 144.430,226.257 144.636 C 226.257 144.837,226.443 144.929,226.670 144.842 C 226.898 144.754,227.255 144.841,227.464 145.035 C 227.757 145.306,227.796 145.300,227.633 145.011 C 227.309 144.436,228.086 144.564,228.543 145.161 C 228.895 145.620,228.984 145.630,229.247 145.236 C 229.439 144.949,229.550 144.919,229.553 145.152 C 229.555 145.353,229.749 145.444,229.984 145.354 C 230.219 145.264,230.725 145.362,231.109 145.573 C 231.494 145.784,232.086 145.923,232.427 145.882 C 232.767 145.842,233.442 145.972,233.927 146.171 C 234.412 146.371,235.392 146.553,236.104 146.575 C 236.817 146.598,237.492 146.749,237.605 146.911 C 237.717 147.072,238.113 147.185,238.485 147.162 C 238.876 147.137,239.160 147.291,239.160 147.528 C 239.160 147.753,239.295 147.937,239.460 147.937 C 239.625 147.937,239.760 147.802,239.760 147.637 C 239.760 147.181,240.538 147.278,240.960 147.787 C 241.166 148.035,241.554 148.235,241.822 148.232 C 242.247 148.228,242.252 148.190,241.860 147.937 C 241.613 147.777,241.553 147.644,241.728 147.642 C 241.903 147.639,242.308 147.835,242.628 148.077 C 243.300 148.585,243.781 148.674,243.513 148.240 C 243.301 147.897,244.109 148.154,245.011 148.716 C 245.828 149.225,247.629 149.489,247.364 149.060 C 247.237 148.854,247.345 148.805,247.663 148.927 C 248.019 149.064,248.173 148.949,248.200 148.528 C 248.220 148.203,248.271 147.802,248.312 147.637 C 248.353 147.472,248.406 147.033,248.429 146.662 C 248.464 146.111,248.525 146.070,248.762 146.437 C 248.937 146.707,249.055 146.744,249.058 146.529 C 249.060 146.333,248.945 146.100,248.802 146.011 C 248.660 145.923,248.610 145.498,248.693 145.066 C 248.805 144.480,248.912 144.383,249.115 144.684 C 249.293 144.947,249.337 144.729,249.242 144.054 C 249.162 143.487,249.190 142.879,249.305 142.704 C 249.419 142.529,249.529 142.116,249.549 141.785 C 249.626 140.553,249.668 140.403,249.900 140.546 C 250.030 140.627,250.083 140.230,250.017 139.664 C 249.944 139.038,250.027 138.635,250.230 138.635 C 250.417 138.635,250.563 138.119,250.563 137.454 C 250.563 136.804,250.725 135.893,250.923 135.428 C 251.423 134.255,251.427 132.933,250.930 132.933 C 250.709 132.933,250.605 132.807,250.700 132.654 C 250.795 132.500,250.433 132.397,249.892 132.425 C 249.307 132.455,248.938 132.340,248.976 132.139 C 249.017 131.921,248.671 131.852,248.000 131.942 C 247.406 132.022,246.962 131.952,246.962 131.777 C 246.962 131.610,246.624 131.534,246.212 131.609 C 245.790 131.685,245.461 131.603,245.461 131.420 C 245.461 131.241,245.225 131.119,244.936 131.148 C 243.929 131.251,243.327 131.131,243.494 130.861 C 243.586 130.711,243.378 130.663,243.030 130.754 C 242.683 130.844,242.311 130.776,242.203 130.601 C 242.094 130.426,241.237 130.226,240.297 130.156 C 239.357 130.086,238.353 129.839,238.066 129.606 C 237.729 129.333,237.624 129.315,237.770 129.557 C 237.922 129.810,237.788 129.932,237.359 129.932 C 237.010 129.932,236.803 129.805,236.900 129.648 C 236.998 129.489,236.780 129.421,236.406 129.493 C 236.039 129.563,235.639 129.462,235.519 129.268 C 235.399 129.073,234.700 128.887,233.966 128.853 C 233.232 128.820,232.329 128.630,231.958 128.432 C 231.551 128.214,231.363 128.197,231.482 128.389 C 231.589 128.564,231.302 128.512,230.843 128.273 C 230.383 128.035,229.771 127.915,229.482 128.006 C 229.194 128.098,228.957 128.041,228.957 127.880 C 228.957 127.720,228.699 127.655,228.384 127.738 C 228.000 127.838,227.765 127.706,227.669 127.335 C 227.534 126.812,227.525 126.811,227.492 127.325 C 227.473 127.623,227.320 127.783,227.152 127.679 C 226.984 127.575,226.938 127.331,227.050 127.136 C 227.162 126.941,227.154 126.871,227.032 126.979 C 226.911 127.088,226.414 127.063,225.928 126.924 C 225.442 126.784,225.109 126.774,225.187 126.901 C 225.266 127.028,225.139 127.132,224.906 127.132 C 224.673 127.132,224.564 127.000,224.664 126.838 C 224.776 126.657,224.540 126.621,224.051 126.744 C 223.608 126.855,223.256 126.817,223.256 126.657 C 223.256 126.500,222.855 126.383,222.366 126.397 C 221.877 126.411,221.271 126.252,221.020 126.043 C 220.748 125.818,220.247 125.744,219.784 125.860 C 219.309 125.979,219.075 125.942,219.185 125.764 C 219.284 125.604,219.227 125.388,219.060 125.284 C 218.892 125.181,218.755 125.253,218.755 125.446 C 218.755 125.662,218.553 125.713,218.230 125.579 C 217.941 125.460,217.309 125.310,216.826 125.246 C 216.343 125.183,215.639 124.928,215.261 124.681 C 214.425 124.133,214.144 124.107,214.443 124.606 C 214.610 124.884,214.557 124.902,214.236 124.676 C 213.998 124.507,213.365 124.377,212.828 124.386 C 212.292 124.394,211.853 124.296,211.853 124.166 C 211.853 124.037,211.752 123.947,211.628 123.967 C 211.070 124.055,210.269 123.914,210.428 123.756 C 210.524 123.660,210.344 123.322,210.028 123.006 C 209.711 122.689,209.452 122.177,209.452 121.867 C 209.452 121.557,209.260 121.144,209.026 120.950 C 208.791 120.755,208.504 120.029,208.389 119.338 C 208.273 118.646,208.074 118.012,207.945 117.929 C 207.817 117.847,207.620 117.239,207.508 116.579 C 207.395 115.919,207.234 114.974,207.149 114.479 C 207.065 113.983,206.839 113.389,206.648 113.157 C 206.156 112.559,206.167 103.771,206.660 103.607 C 206.857 103.541,206.943 103.292,206.852 103.054 C 206.760 102.816,206.903 102.289,207.169 101.884 C 207.435 101.478,207.652 100.939,207.652 100.686 C 207.652 100.432,207.783 100.225,207.942 100.225 C 208.102 100.225,208.434 99.854,208.681 99.400 C 208.927 98.946,209.134 98.695,209.140 98.842 C 209.147 98.989,209.616 98.617,210.182 98.016 C 210.749 97.416,211.340 96.924,211.496 96.924 C 211.652 96.924,211.950 96.718,212.159 96.467 C 212.368 96.215,212.605 96.076,212.685 96.156 C 212.766 96.237,213.088 96.166,213.400 95.999 C 215.083 95.098,223.799 95.105,224.100 96.008 C 224.152 96.163,224.375 96.221,224.595 96.137 C 224.815 96.052,225.086 96.130,225.197 96.309 C 225.307 96.488,225.515 96.562,225.658 96.473 C 225.801 96.385,226.365 96.564,226.912 96.871 C 227.459 97.178,228.413 97.596,229.032 97.800 C 229.651 98.004,230.158 98.281,230.158 98.415 C 230.158 98.868,231.736 99.084,232.000 98.667 C 232.383 98.063,232.326 81.920,231.940 81.920 C 231.765 81.920,231.696 81.802,231.785 81.658 C 231.874 81.513,231.308 81.220,230.527 81.005 C 229.746 80.790,229.037 80.512,228.951 80.386 C 228.865 80.260,228.460 80.085,228.051 79.998 C 227.348 79.848,225.259 79.305,224.606 79.103 C 224.441 79.052,224.036 78.889,223.706 78.740 C 222.505 78.199,209.752 78.427,209.752 78.989 C 209.752 79.122,209.415 79.147,209.002 79.043 C 208.590 78.939,208.252 78.983,208.252 79.139 C 208.252 79.296,207.514 79.601,206.612 79.817 C 205.710 80.034,205.034 80.311,205.110 80.434 C 205.185 80.556,204.877 80.747,204.424 80.857 C 203.597 81.059,201.287 82.476,201.100 82.896 C 201.045 83.020,200.847 83.121,200.661 83.121 C 200.474 83.121,200.046 83.390,199.710 83.719 C 199.375 84.048,198.661 84.668,198.124 85.097 C 197.587 85.525,197.218 85.990,197.303 86.128 C 197.389 86.267,197.301 86.478,197.108 86.597 C 196.875 86.741,196.830 86.673,196.976 86.393 C 197.194 85.973,196.399 86.866,195.416 88.144 C 195.131 88.514,194.595 89.162,194.224 89.585 C 193.852 90.008,193.548 90.557,193.548 90.806 C 193.548 91.055,193.429 91.184,193.282 91.094 C 193.056 90.954,192.931 91.175,192.531 92.423 C 192.504 92.506,192.245 92.928,191.955 93.361 C 191.665 93.794,191.376 94.402,191.314 94.711 C 191.251 95.021,190.921 95.881,190.580 96.624 C 190.239 97.367,189.958 98.251,189.954 98.590 C 189.950 98.928,189.828 99.333,189.681 99.490 C 189.341 99.854,188.747 103.343,188.747 104.976 C 188.747 105.664,188.644 106.227,188.519 106.227 C 188.250 106.227,188.212 113.508,188.480 113.728 C 188.806 113.997,189.027 118.377,188.738 118.835 C 188.558 119.119,188.455 119.147,188.452 118.914 C 188.449 118.713,188.245 118.626,187.997 118.721 C 187.749 118.816,187.547 118.769,187.547 118.616 C 187.547 118.464,187.079 118.376,186.506 118.421 C 185.934 118.466,185.389 118.380,185.296 118.229 C 185.203 118.079,184.924 118.034,184.675 118.129 C 184.427 118.224,183.935 118.050,183.583 117.741 C 183.231 117.432,183.031 117.331,183.139 117.517 C 183.262 117.730,183.053 117.854,182.572 117.854 C 182.014 117.854,181.857 117.733,181.985 117.399 C 182.125 117.034,182.075 117.015,181.729 117.301 C 181.423 117.555,181.240 117.564,181.097 117.332 C 180.986 117.152,180.619 117.092,180.282 117.199 C 179.835 117.341,179.733 117.291,179.904 117.015 C 180.084 116.724,179.876 116.678,179.015 116.818 C 178.042 116.976,177.918 116.932,178.086 116.490 C 178.242 116.080,178.205 116.053,177.902 116.354 C 177.694 116.560,177.315 116.727,177.059 116.725 C 176.649 116.721,176.647 116.683,177.044 116.406 C 177.377 116.175,177.230 116.145,176.482 116.293 C 175.706 116.446,175.524 116.404,175.703 116.114 C 175.874 115.838,175.762 115.780,175.290 115.904 C 174.934 115.997,174.718 115.951,174.811 115.801 C 174.903 115.652,174.734 115.551,174.436 115.577 C 171.500 115.832,170.222 115.107,169.064 112.528 C 168.357 110.955,167.722 109.377,167.796 109.377 C 167.844 109.377,167.594 108.905,167.240 108.327 C 166.886 107.749,166.436 106.673,166.240 105.935 C 166.043 105.197,165.693 104.323,165.462 103.993 C 165.231 103.663,165.041 103.152,165.041 102.859 C 165.041 102.566,164.898 102.326,164.723 102.326 C 164.549 102.326,164.493 102.185,164.599 102.012 C 164.706 101.840,164.661 101.536,164.501 101.337 C 164.340 101.138,164.114 100.401,163.999 99.700 C 163.883 98.998,163.631 98.423,163.439 98.420 C 163.242 98.417,163.286 98.289,163.541 98.125 C 163.788 97.965,163.851 97.832,163.680 97.829 C 163.509 97.827,163.346 97.588,163.318 97.299 C 163.290 97.011,163.115 95.896,162.930 94.824 C 162.538 92.550,162.751 86.862,163.251 86.259 C 163.439 86.033,163.493 85.686,163.370 85.488 C 163.222 85.248,163.276 85.207,163.533 85.367 C 163.791 85.526,163.870 85.467,163.771 85.188 C 163.583 84.657,164.347 83.121,164.799 83.121 C 164.987 83.121,165.068 83.048,164.979 82.959 C 164.743 82.723,166.306 81.020,166.758 81.020 C 166.969 81.020,167.142 80.889,167.142 80.729 C 167.142 78.848,178.813 77.631,180.877 79.297 C 181.088 79.467,181.345 79.520,181.450 79.415 C 181.555 79.311,181.798 79.356,181.991 79.517 C 182.293 79.767,183.182 80.019,184.039 80.098 C 184.172 80.110,184.185 80.276,184.067 80.467 C 183.920 80.705,184.056 80.761,184.499 80.646 C 184.855 80.552,185.146 80.596,185.146 80.743 C 185.146 80.889,185.484 81.094,185.896 81.197 C 186.309 81.301,186.647 81.520,186.647 81.685 C 186.647 81.850,186.849 81.907,187.097 81.812 C 187.344 81.717,187.547 81.770,187.547 81.930 C 187.547 82.090,187.809 82.221,188.129 82.221 C 188.690 82.221,188.712 81.928,188.737 74.129 C 188.764 65.908,188.649 64.374,188.022 64.615 C 187.830 64.689,187.415 64.562,187.102 64.333 C 186.788 64.104,186.288 63.916,185.989 63.916 C 185.691 63.916,185.446 63.799,185.446 63.657 C 185.446 63.514,184.636 63.226,183.646 63.016 C 182.656 62.806,181.845 62.495,181.845 62.325 C 181.845 62.155,181.773 62.088,181.685 62.176 C 181.596 62.264,180.685 62.157,179.659 61.937 C 177.917 61.563,170.217 61.436,167.367 61.734 M111.778 94.462 C 111.283 94.765,110.236 95.190,109.452 95.407 C 108.668 95.624,108.027 95.907,108.027 96.035 C 108.027 96.164,107.359 96.440,106.542 96.649 C 105.725 96.859,105.118 97.130,105.194 97.253 C 105.270 97.375,104.907 97.569,104.388 97.683 C 103.869 97.797,102.802 98.213,102.016 98.607 C 101.231 99.002,100.318 99.325,99.989 99.325 C 99.659 99.325,99.311 99.527,99.216 99.775 C 99.121 100.023,98.732 100.225,98.351 100.225 C 97.970 100.225,97.388 100.414,97.057 100.646 C 96.727 100.877,95.887 101.220,95.190 101.408 C 94.493 101.595,93.923 101.863,93.923 102.004 C 93.923 102.144,93.451 102.347,92.873 102.456 C 92.296 102.564,91.823 102.796,91.823 102.971 C 91.823 103.147,91.620 103.212,91.373 103.117 C 91.125 103.022,90.923 103.058,90.923 103.196 C 90.923 103.335,90.315 103.618,89.572 103.826 C 88.830 104.034,88.222 104.311,88.222 104.441 C 88.222 104.572,87.783 104.772,87.247 104.886 C 86.710 105.000,86.069 105.264,85.821 105.472 C 85.574 105.681,84.669 106.027,83.811 106.242 C 82.953 106.457,82.319 106.744,82.403 106.880 C 82.487 107.016,82.447 107.137,82.313 107.150 C 81.350 107.241,77.349 108.880,77.086 109.292 C 76.985 109.450,76.817 109.570,76.712 109.560 C 76.200 109.511,74.687 109.937,74.542 110.171 C 74.451 110.318,74.251 110.360,74.098 110.265 C 73.944 110.170,73.818 110.224,73.818 110.386 C 73.818 110.548,73.413 110.769,72.918 110.878 C 72.423 110.986,72.018 111.196,72.018 111.342 C 72.018 111.489,71.815 111.531,71.568 111.436 C 71.320 111.341,71.118 111.402,71.118 111.572 C 71.118 111.742,70.679 111.977,70.143 112.094 C 69.606 112.212,68.697 112.560,68.121 112.868 C 67.546 113.176,66.905 113.428,66.696 113.428 C 66.487 113.428,66.317 113.571,66.317 113.746 C 66.317 113.921,66.181 113.980,66.014 113.877 C 65.848 113.774,65.499 113.903,65.240 114.162 C 64.980 114.422,64.659 114.567,64.526 114.485 C 64.393 114.402,64.124 114.528,63.928 114.764 C 63.732 115.000,63.379 115.119,63.144 115.029 C 62.908 114.938,62.716 115.014,62.716 115.197 C 62.716 115.379,62.473 115.529,62.176 115.529 C 61.878 115.529,61.473 115.691,61.275 115.889 C 61.077 116.087,60.915 116.145,60.915 116.018 C 60.915 115.890,60.703 115.998,60.444 116.258 C 60.184 116.517,59.654 116.729,59.265 116.729 C 58.876 116.729,58.355 116.931,58.108 117.178 C 57.861 117.426,57.446 117.546,57.187 117.446 C 56.927 117.347,56.714 117.415,56.714 117.597 C 56.714 117.780,56.570 117.929,56.395 117.929 C 56.219 117.929,55.338 118.267,54.435 118.680 C 53.533 119.092,52.664 119.430,52.504 119.430 C 52.344 119.430,52.213 119.574,52.213 119.750 C 52.213 119.934,51.957 119.989,51.613 119.880 C 51.280 119.774,51.013 119.826,51.013 119.996 C 51.013 120.165,50.538 120.392,49.958 120.501 C 49.378 120.610,48.804 120.862,48.683 121.062 C 48.561 121.262,47.821 121.602,47.037 121.817 C 46.253 122.033,45.611 122.310,45.611 122.434 C 45.611 122.558,45.012 122.810,44.279 122.995 C 43.546 123.180,42.863 123.466,42.761 123.631 C 42.659 123.796,42.358 123.931,42.091 123.931 C 41.825 123.931,41.337 124.167,41.007 124.456 C 40.677 124.745,40.505 124.814,40.624 124.610 C 40.771 124.359,40.690 124.296,40.376 124.417 C 40.120 124.515,39.910 124.716,39.910 124.863 C 39.910 125.011,39.670 125.131,39.377 125.131 C 39.083 125.131,38.577 125.318,38.251 125.546 C 37.926 125.774,37.560 125.980,37.438 126.004 C 36.851 126.120,35.661 126.596,32.858 127.838 C 32.363 128.057,31.857 128.213,31.733 128.184 C 31.609 128.156,31.506 128.301,31.503 128.507 C 31.500 128.757,31.402 128.732,31.208 128.432 C 31.039 128.172,30.915 128.130,30.912 128.334 C 30.908 128.668,28.907 129.524,28.432 129.394 C 28.308 129.360,28.207 129.440,28.207 129.572 C 28.207 129.814,25.975 130.730,25.935 130.504 C 25.923 130.437,25.721 130.585,25.485 130.833 C 25.136 131.199,25.056 132.740,25.056 139.135 L 25.056 146.987 26.182 147.324 C 26.800 147.509,27.307 147.784,27.307 147.935 C 27.307 148.086,27.779 148.299,28.357 148.407 C 28.935 148.515,29.407 148.697,29.407 148.810 C 29.407 149.069,31.221 149.737,31.922 149.737 C 32.209 149.737,32.360 149.872,32.258 150.038 C 32.156 150.203,32.283 150.354,32.540 150.375 C 33.540 150.455,34.910 150.943,35.140 151.300 C 35.240 151.455,35.910 151.714,36.629 151.876 C 37.348 152.037,38.124 152.325,38.353 152.516 C 38.582 152.706,38.964 152.890,39.200 152.925 C 39.436 152.960,40.170 153.269,40.829 153.613 C 41.489 153.957,42.168 154.239,42.338 154.239 C 42.794 154.239,46.031 155.793,46.245 156.115 C 46.346 156.266,46.481 156.357,46.545 156.317 C 46.817 156.145,48.912 157.013,48.912 157.298 C 48.912 157.469,49.182 157.539,49.512 157.452 C 49.842 157.366,50.113 157.412,50.113 157.554 C 50.113 157.696,50.585 157.901,51.163 158.009 C 51.740 158.118,52.213 158.311,52.213 158.440 C 52.213 158.568,52.821 158.853,53.563 159.072 C 54.306 159.291,54.914 159.591,54.914 159.738 C 54.914 159.884,55.088 159.937,55.301 159.855 C 55.515 159.774,55.946 159.894,56.259 160.123 C 56.572 160.353,57.073 160.540,57.372 160.540 C 57.670 160.540,57.914 160.675,57.914 160.840 C 57.914 161.005,58.158 161.140,58.455 161.140 C 58.752 161.140,59.157 161.302,59.355 161.500 C 59.553 161.698,59.715 161.755,59.715 161.626 C 59.715 161.497,60.154 161.658,60.690 161.984 C 61.227 162.309,62.105 162.669,62.643 162.783 C 63.181 162.896,63.538 163.125,63.436 163.290 C 63.332 163.457,63.496 163.551,63.808 163.503 C 64.115 163.455,65.057 163.767,65.901 164.196 C 66.745 164.625,67.860 165.069,68.379 165.183 C 68.898 165.297,69.239 165.525,69.137 165.690 C 69.035 165.855,69.203 165.962,69.510 165.928 C 70.133 165.858,72.018 166.565,72.018 166.869 C 72.018 166.976,72.626 167.234,73.368 167.442 C 74.111 167.650,74.719 167.952,74.719 168.113 C 74.719 168.274,74.913 168.332,75.150 168.241 C 75.683 168.036,77.822 169.040,77.512 169.349 C 77.389 169.473,77.514 169.487,77.790 169.381 C 78.066 169.275,78.598 169.403,78.973 169.666 C 79.347 169.928,79.893 170.143,80.187 170.143 C 80.480 170.143,80.720 170.278,80.720 170.443 C 80.720 170.608,80.925 170.743,81.174 170.743 C 81.424 170.743,81.863 170.868,82.150 171.021 C 82.908 171.426,83.837 171.745,84.096 171.691 C 84.220 171.664,84.321 171.767,84.321 171.919 C 84.321 172.071,84.760 172.289,85.296 172.403 C 85.833 172.517,86.522 172.831,86.828 173.102 C 87.134 173.372,87.472 173.566,87.578 173.531 C 87.966 173.408,89.122 173.816,89.122 174.076 C 89.122 174.223,89.224 174.322,89.347 174.295 C 89.471 174.268,89.953 174.404,90.417 174.595 C 90.882 174.787,91.388 174.944,91.542 174.944 C 91.697 174.944,91.823 175.068,91.823 175.220 C 91.823 175.372,92.262 175.590,92.798 175.706 C 93.335 175.821,94.044 176.063,94.374 176.244 C 94.704 176.425,95.041 176.589,95.124 176.609 C 95.206 176.628,95.679 176.806,96.174 177.002 C 96.669 177.199,97.479 177.513,97.974 177.701 C 98.470 177.888,99.003 178.154,99.160 178.293 C 99.317 178.431,99.755 178.545,100.135 178.545 C 100.515 178.545,100.825 178.674,100.825 178.833 C 100.825 178.991,101.365 179.283,102.026 179.480 C 102.686 179.678,103.226 179.946,103.226 180.075 C 103.226 180.205,103.499 180.258,103.834 180.194 C 104.168 180.129,104.372 180.190,104.287 180.328 C 104.201 180.466,104.603 180.668,105.179 180.776 C 105.755 180.884,106.227 181.074,106.227 181.199 C 106.227 181.472,108.014 182.146,108.741 182.146 C 109.028 182.146,109.180 182.279,109.079 182.442 C 108.974 182.612,109.095 182.663,109.362 182.560 C 109.618 182.462,109.827 182.520,109.827 182.690 C 109.827 182.859,110.259 183.093,110.786 183.209 C 111.313 183.324,111.930 183.605,112.157 183.833 C 112.385 184.060,112.966 184.246,113.450 184.246 L 114.329 184.246 114.326 175.769 L 114.324 167.292 113.534 166.925 C 113.099 166.723,112.628 166.630,112.486 166.718 C 112.344 166.805,112.228 166.749,112.228 166.593 C 112.228 166.436,111.755 166.220,111.178 166.111 C 110.600 166.003,110.128 165.771,110.128 165.596 C 110.128 165.420,109.925 165.355,109.677 165.450 C 109.430 165.545,109.227 165.507,109.227 165.365 C 109.227 165.224,108.755 165.019,108.177 164.911 C 107.599 164.803,107.127 164.571,107.127 164.395 C 107.127 164.220,106.924 164.155,106.677 164.250 C 106.429 164.345,106.227 164.291,106.227 164.132 C 106.227 163.972,105.973 163.841,105.663 163.841 C 105.353 163.841,104.927 163.632,104.715 163.377 C 104.503 163.122,104.149 162.983,103.928 163.068 C 103.707 163.153,103.526 163.106,103.526 162.965 C 103.526 162.823,103.053 162.619,102.476 162.510 C 101.898 162.402,101.425 162.195,101.425 162.051 C 101.425 161.906,100.986 161.697,100.450 161.585 C 99.914 161.473,99.167 161.187,98.791 160.948 C 98.415 160.710,97.976 160.596,97.816 160.695 C 97.656 160.795,97.524 160.748,97.524 160.591 C 97.524 160.435,97.052 160.218,96.474 160.110 C 95.896 160.001,95.424 159.784,95.424 159.626 C 95.424 159.469,95.201 159.340,94.928 159.340 C 94.655 159.340,93.739 159.012,92.892 158.612 C 92.046 158.211,90.953 157.785,90.463 157.665 C 89.973 157.545,89.499 157.336,89.409 157.201 C 89.320 157.065,88.952 156.909,88.592 156.855 C 88.232 156.800,87.844 156.661,87.730 156.547 C 87.615 156.433,87.291 156.339,87.008 156.339 C 86.726 156.339,86.322 156.130,86.110 155.875 C 85.899 155.620,85.549 155.479,85.333 155.562 C 85.117 155.645,84.861 155.584,84.763 155.426 C 84.666 155.268,84.316 155.139,83.986 155.139 C 83.656 155.139,83.469 155.004,83.571 154.839 C 83.676 154.669,83.430 154.539,83.006 154.539 C 82.594 154.539,82.173 154.404,82.071 154.239 C 81.969 154.074,81.572 153.938,81.189 153.938 C 80.807 153.938,80.337 153.750,80.146 153.520 C 79.955 153.289,79.365 153.016,78.834 152.913 C 78.304 152.810,77.065 152.332,76.081 151.852 C 75.098 151.372,74.186 151.046,74.056 151.126 C 73.925 151.207,73.818 151.130,73.818 150.955 C 73.818 150.781,73.717 150.660,73.593 150.687 C 73.103 150.794,71.718 150.254,71.718 149.955 C 71.718 149.780,71.629 149.726,71.520 149.835 C 71.412 149.943,71.156 149.894,70.952 149.724 C 70.748 149.555,70.465 149.449,70.324 149.489 C 70.183 149.528,69.646 149.336,69.130 149.061 C 68.615 148.786,68.108 148.646,68.005 148.749 C 67.902 148.853,67.817 148.797,67.817 148.625 C 67.817 148.453,67.404 148.229,66.899 148.129 C 66.395 148.028,65.770 147.733,65.510 147.474 C 65.251 147.214,64.858 147.072,64.637 147.156 C 64.416 147.241,64.155 147.181,64.058 147.024 C 63.960 146.866,63.618 146.737,63.298 146.737 C 62.978 146.737,62.716 146.623,62.716 146.484 C 62.716 146.345,62.142 146.061,61.440 145.853 C 60.739 145.645,60.002 145.342,59.803 145.179 C 59.604 145.017,59.279 144.985,59.082 145.107 C 58.860 145.244,58.801 145.202,58.927 144.998 C 59.055 144.790,58.736 144.592,58.073 144.468 C 57.491 144.359,57.014 144.163,57.014 144.033 C 57.014 143.902,56.350 143.636,55.538 143.442 C 54.727 143.247,53.815 142.900,53.513 142.671 C 53.211 142.442,52.803 142.250,52.608 142.245 C 52.412 142.240,51.872 142.078,51.407 141.886 C 50.943 141.693,50.495 141.513,50.413 141.485 C 50.330 141.458,49.882 141.278,49.418 141.085 C 48.953 140.893,48.387 140.735,48.160 140.735 C 47.933 140.735,47.663 140.598,47.559 140.430 C 47.455 140.262,47.245 140.203,47.091 140.298 C 46.937 140.393,46.812 140.338,46.812 140.177 C 46.812 140.015,46.407 139.794,45.911 139.685 C 44.682 139.415,44.769 138.707,46.062 138.465 C 46.639 138.356,47.112 138.159,47.112 138.025 C 47.112 137.891,47.517 137.693,48.012 137.584 C 48.507 137.476,48.912 137.247,48.912 137.075 C 48.912 136.904,49.182 136.835,49.512 136.921 C 49.842 137.007,50.113 136.989,50.113 136.880 C 50.113 136.697,53.459 135.279,54.177 135.158 C 54.349 135.129,55.159 134.790,55.977 134.404 C 56.795 134.019,57.716 133.683,58.022 133.658 C 58.329 133.633,58.673 133.463,58.786 133.280 C 58.898 133.098,59.255 132.903,59.578 132.847 C 59.901 132.791,60.799 132.450,61.574 132.089 C 62.349 131.728,63.185 131.433,63.432 131.433 C 63.679 131.433,63.960 131.304,64.058 131.146 C 64.155 130.988,64.434 130.935,64.676 131.028 C 64.918 131.121,65.116 131.061,65.116 130.894 C 65.116 130.643,65.614 130.381,67.217 129.788 C 67.299 129.757,67.747 129.575,68.212 129.382 C 68.676 129.190,69.242 129.032,69.469 129.032 C 69.696 129.032,69.967 128.895,70.071 128.727 C 70.174 128.560,70.385 128.500,70.538 128.595 C 70.692 128.690,70.818 128.631,70.818 128.463 C 70.818 128.296,71.289 128.071,71.865 127.963 C 72.442 127.855,72.846 127.659,72.765 127.527 C 72.684 127.395,72.909 127.364,73.265 127.457 C 73.660 127.560,73.839 127.509,73.725 127.324 C 73.555 127.048,75.762 126.148,76.294 126.277 C 76.418 126.307,76.519 126.213,76.519 126.067 C 76.519 125.922,77.148 125.644,77.917 125.451 C 78.686 125.257,79.594 124.903,79.934 124.665 C 80.275 124.426,80.852 124.231,81.216 124.231 C 81.580 124.231,82.056 124.062,82.274 123.856 C 82.686 123.466,83.534 123.112,86.572 122.059 C 87.562 121.716,88.416 121.326,88.469 121.192 C 88.522 121.059,89.029 120.862,89.594 120.756 C 90.160 120.650,90.623 120.435,90.623 120.279 C 90.623 120.123,90.758 120.078,90.923 120.180 C 91.088 120.282,91.223 120.222,91.223 120.048 C 91.223 119.873,91.463 119.730,91.756 119.730 C 92.050 119.730,92.556 119.554,92.881 119.339 C 93.207 119.124,93.676 118.958,93.923 118.971 C 94.171 118.984,94.552 118.822,94.770 118.612 C 94.988 118.402,95.478 118.230,95.859 118.230 C 96.239 118.230,96.710 118.037,96.905 117.803 C 97.100 117.568,97.927 117.205,98.742 116.996 C 99.558 116.787,100.225 116.506,100.225 116.372 C 100.225 116.239,100.473 116.129,100.775 116.129 C 101.078 116.129,101.415 116.039,101.525 115.929 C 101.635 115.820,102.094 115.690,102.546 115.642 C 102.998 115.594,103.410 115.427,103.462 115.270 C 103.514 115.114,104.158 114.808,104.892 114.592 C 105.626 114.375,106.227 114.092,106.227 113.963 C 106.227 113.834,106.497 113.728,106.827 113.728 C 107.157 113.728,107.427 113.585,107.427 113.411 C 107.427 113.236,107.567 113.179,107.738 113.285 C 107.909 113.391,108.821 113.080,109.764 112.595 C 110.706 112.109,111.647 111.772,111.853 111.845 C 112.059 111.918,112.228 111.847,112.228 111.686 C 112.228 111.526,112.695 111.307,113.265 111.200 L 114.302 111.005 114.240 102.539 L 114.179 94.074 113.428 93.992 C 113.016 93.948,112.273 94.159,111.778 94.462 M273.678 102.458 C 273.701 110.298,273.746 111.028,274.211 111.030 C 274.490 111.031,275.077 111.218,275.515 111.447 C 275.953 111.675,276.831 112.032,277.465 112.239 C 278.100 112.446,278.693 112.727,278.783 112.864 C 278.872 113.001,279.240 113.158,279.600 113.213 C 279.960 113.268,280.348 113.406,280.462 113.521 C 280.577 113.635,280.918 113.728,281.220 113.728 C 281.523 113.728,281.770 113.851,281.770 114.001 C 281.770 114.151,282.446 114.446,283.271 114.658 C 284.096 114.869,284.771 115.166,284.771 115.318 C 284.771 115.469,284.981 115.513,285.237 115.414 C 285.493 115.316,285.627 115.357,285.536 115.506 C 285.444 115.654,285.910 115.867,286.572 115.979 C 287.233 116.091,287.709 116.289,287.628 116.419 C 287.499 116.627,287.838 116.746,289.872 117.207 C 290.120 117.263,290.858 117.584,291.511 117.919 C 292.165 118.255,292.950 118.530,293.254 118.530 C 293.559 118.530,293.733 118.653,293.640 118.803 C 293.547 118.954,293.707 119.038,293.997 118.991 C 294.287 118.943,294.745 119.097,295.015 119.333 C 295.286 119.569,295.792 119.784,296.140 119.810 C 296.489 119.836,296.774 119.972,296.774 120.112 C 296.774 120.251,296.909 120.282,297.074 120.180 C 297.239 120.078,297.374 120.131,297.374 120.299 C 297.374 120.466,297.847 120.692,298.425 120.800 C 299.002 120.908,299.475 121.113,299.475 121.254 C 299.475 121.396,299.677 121.434,299.925 121.339 C 300.173 121.244,300.375 121.302,300.375 121.468 C 300.375 121.635,301.050 121.933,301.875 122.131 C 302.701 122.328,303.376 122.606,303.376 122.747 C 303.376 122.888,303.848 123.092,304.426 123.201 C 305.004 123.309,305.476 123.507,305.476 123.640 C 305.476 123.774,305.915 123.977,306.452 124.092 C 306.988 124.207,307.764 124.465,308.177 124.667 C 310.752 125.926,311.783 126.353,313.035 126.680 C 313.810 126.882,314.361 127.179,314.262 127.340 C 314.156 127.511,314.289 127.554,314.579 127.442 C 314.854 127.337,315.079 127.370,315.079 127.515 C 315.079 127.660,315.619 127.871,316.280 127.982 C 317.029 128.109,317.406 128.307,317.281 128.510 C 317.154 128.716,317.263 128.764,317.580 128.643 C 317.855 128.537,318.080 128.567,318.080 128.708 C 318.080 128.850,318.552 129.054,319.130 129.162 C 319.707 129.271,320.180 129.494,320.180 129.659 C 320.180 129.824,320.349 129.934,320.555 129.903 C 321.080 129.825,322.881 130.541,322.881 130.829 C 322.881 130.959,323.372 131.158,323.972 131.271 C 324.572 131.383,325.539 131.730,326.120 132.042 C 326.702 132.354,327.291 132.539,327.430 132.453 C 327.569 132.368,327.682 132.441,327.682 132.615 C 327.682 132.790,327.893 132.933,328.152 132.933 C 328.410 132.933,328.917 133.096,329.277 133.294 C 329.638 133.492,330.076 133.679,330.250 133.709 C 330.425 133.739,331.341 134.117,332.285 134.549 C 333.229 134.981,334.170 135.334,334.376 135.334 C 334.582 135.334,335.084 135.568,335.492 135.854 C 335.900 136.139,336.268 136.342,336.309 136.304 C 336.524 136.105,337.291 136.280,337.645 136.609 C 337.867 136.815,338.248 137.024,338.492 137.073 C 338.735 137.122,339.391 137.373,339.948 137.630 C 340.505 137.888,341.113 138.138,341.298 138.186 C 342.403 138.471,342.986 138.734,342.986 138.948 C 342.986 139.294,341.165 140.158,340.849 139.962 C 340.704 139.873,340.585 139.938,340.585 140.108 C 340.585 140.278,340.383 140.339,340.135 140.244 C 339.887 140.149,339.685 140.210,339.685 140.380 C 339.685 140.550,339.199 140.849,338.606 141.045 C 338.012 141.241,337.168 141.588,336.730 141.816 C 336.292 142.045,335.698 142.233,335.409 142.234 C 335.120 142.235,334.884 142.366,334.884 142.526 C 334.884 142.686,334.685 142.740,334.441 142.647 C 334.198 142.554,333.783 142.693,333.520 142.957 C 333.256 143.220,332.780 143.436,332.462 143.436 C 332.143 143.436,331.883 143.567,331.883 143.727 C 331.883 143.886,331.680 143.939,331.433 143.844 C 331.185 143.749,330.983 143.808,330.983 143.974 C 330.983 144.140,330.308 144.438,329.483 144.636 C 328.658 144.834,328.057 145.115,328.147 145.260 C 328.237 145.406,327.766 145.612,327.101 145.718 C 326.385 145.833,325.970 146.037,326.083 146.220 C 326.193 146.398,326.128 146.439,325.928 146.316 C 325.738 146.198,325.282 146.312,324.915 146.569 C 324.548 146.826,323.932 147.037,323.546 147.037 C 323.088 147.037,322.920 147.158,323.062 147.388 C 323.208 147.624,323.116 147.676,322.780 147.547 C 322.505 147.442,322.281 147.471,322.281 147.613 C 322.281 147.754,321.808 147.959,321.230 148.067 C 320.653 148.176,320.180 148.401,320.180 148.568 C 320.180 148.736,320.057 148.797,319.907 148.704 C 319.756 148.611,319.250 148.731,318.781 148.971 C 317.708 149.520,316.795 149.847,316.504 149.785 C 316.380 149.759,316.279 149.871,316.279 150.033 C 316.279 150.196,315.671 150.482,314.929 150.669 C 314.186 150.856,313.578 151.128,313.578 151.273 C 313.578 151.419,313.477 151.516,313.353 151.489 C 312.921 151.396,310.278 152.211,310.278 152.438 C 310.278 152.564,309.670 152.820,308.927 153.007 C 308.185 153.194,307.577 153.455,307.577 153.586 C 307.577 153.717,306.872 154.006,306.010 154.227 C 305.149 154.447,304.261 154.810,304.038 155.033 C 303.815 155.256,303.322 155.439,302.941 155.439 C 302.560 155.439,302.102 155.616,301.923 155.832 C 301.744 156.048,300.917 156.410,300.086 156.636 C 299.255 156.863,298.575 157.144,298.575 157.261 C 298.575 157.488,297.399 157.861,296.194 158.016 C 295.793 158.068,295.347 158.319,295.204 158.575 C 295.061 158.831,294.735 159.040,294.479 159.040 C 294.047 159.040,293.632 159.194,291.223 160.250 C 290.728 160.467,290.223 160.622,290.102 160.594 C 289.981 160.566,289.441 160.812,288.902 161.141 C 288.363 161.469,287.618 161.739,287.247 161.739 C 286.875 161.740,286.572 161.854,286.572 161.993 C 286.572 162.256,284.207 163.097,283.774 162.988 C 283.638 162.954,283.608 163.057,283.707 163.218 C 283.806 163.379,283.411 163.600,282.829 163.709 C 282.247 163.818,281.770 164.020,281.770 164.157 C 281.770 164.294,281.500 164.355,281.170 164.291 C 280.840 164.228,280.570 164.301,280.570 164.454 C 280.570 164.607,279.962 164.886,279.220 165.073 C 278.477 165.260,277.869 165.525,277.869 165.663 C 277.869 165.801,277.397 166.003,276.819 166.111 C 276.242 166.220,275.769 166.436,275.769 166.593 C 275.769 166.749,275.648 166.802,275.500 166.711 C 275.352 166.620,274.886 166.724,274.464 166.943 L 273.696 167.341 273.757 175.719 L 273.818 184.096 274.606 184.187 C 275.039 184.238,275.603 184.069,275.860 183.812 C 276.116 183.556,276.530 183.346,276.780 183.346 C 277.030 183.346,277.319 183.209,277.422 183.041 C 277.526 182.873,277.737 182.814,277.890 182.909 C 278.044 183.003,278.170 182.942,278.170 182.773 C 278.170 182.603,278.372 182.542,278.620 182.637 C 278.867 182.732,279.070 182.660,279.070 182.478 C 279.070 182.295,279.260 182.146,279.492 182.146 C 279.723 182.146,280.432 181.888,281.067 181.573 C 282.279 180.972,283.980 180.299,284.383 180.260 C 284.514 180.248,284.787 180.072,284.990 179.869 C 285.193 179.666,285.903 179.408,286.567 179.296 C 287.231 179.183,287.712 178.991,287.637 178.869 C 287.561 178.746,288.162 178.465,288.972 178.245 C 289.783 178.024,290.376 177.731,290.291 177.594 C 290.207 177.457,290.339 177.344,290.585 177.344 C 290.832 177.344,291.346 177.225,291.728 177.080 C 292.110 176.935,292.491 176.831,292.573 176.850 C 292.656 176.868,293.057 176.649,293.465 176.364 C 293.873 176.078,294.431 175.844,294.704 175.844 C 294.977 175.844,295.368 175.641,295.574 175.394 C 295.779 175.146,296.125 174.944,296.341 174.944 C 296.558 174.944,297.115 174.787,297.580 174.595 C 298.044 174.404,298.526 174.268,298.650 174.295 C 298.773 174.322,298.875 174.223,298.875 174.076 C 298.875 173.929,299.246 173.722,299.700 173.616 C 300.595 173.406,301.827 172.881,304.051 171.761 C 304.835 171.366,305.737 171.043,306.055 171.043 C 306.373 171.043,306.820 170.857,307.047 170.629 C 307.275 170.402,307.883 170.123,308.398 170.010 C 308.914 169.897,309.485 169.624,309.667 169.404 C 309.850 169.185,310.467 168.917,311.038 168.810 C 311.610 168.703,312.078 168.490,312.078 168.338 C 312.078 168.186,312.277 168.137,312.520 168.231 C 312.764 168.324,313.178 168.185,313.442 167.921 C 313.706 167.658,314.182 167.442,314.500 167.442 C 314.818 167.442,315.079 167.311,315.079 167.151 C 315.079 166.991,315.303 166.947,315.578 167.052 C 315.880 167.168,316.003 167.123,315.889 166.938 C 315.778 166.759,316.379 166.470,317.340 166.239 C 318.242 166.023,318.980 165.743,318.980 165.617 C 318.980 165.492,319.385 165.300,319.880 165.191 C 320.375 165.083,320.780 164.869,320.780 164.717 C 320.780 164.565,320.881 164.463,321.005 164.490 C 321.129 164.516,321.635 164.371,322.131 164.168 C 322.626 163.964,323.400 163.723,323.851 163.633 C 324.302 163.542,324.605 163.360,324.524 163.229 C 324.442 163.097,324.811 162.894,325.342 162.777 C 325.873 162.661,326.802 162.308,327.405 161.993 C 328.009 161.679,328.814 161.361,329.195 161.288 C 329.577 161.214,329.977 161.011,330.085 160.837 C 330.193 160.662,330.632 160.455,331.062 160.377 C 331.491 160.299,332.560 159.870,333.438 159.423 C 334.316 158.976,335.156 158.646,335.306 158.691 C 335.456 158.735,335.669 158.626,335.779 158.448 C 335.888 158.271,336.263 158.071,336.612 158.003 C 336.960 157.936,337.490 157.755,337.790 157.601 C 338.090 157.447,338.503 157.381,338.710 157.455 C 338.916 157.529,339.085 157.368,339.085 157.097 C 339.085 156.826,339.196 156.672,339.331 156.756 C 339.467 156.840,339.954 156.714,340.413 156.475 C 340.872 156.237,341.390 156.130,341.563 156.237 C 341.747 156.351,341.789 156.288,341.664 156.085 C 341.530 155.869,341.668 155.739,342.031 155.739 C 342.351 155.739,342.770 155.549,342.962 155.317 C 343.155 155.085,343.542 154.931,343.824 154.975 C 344.106 155.018,344.404 154.967,344.486 154.860 C 344.630 154.674,346.244 153.977,348.315 153.207 C 348.853 153.007,349.211 152.762,349.110 152.661 C 349.010 152.561,349.211 152.553,349.558 152.643 C 349.904 152.734,350.188 152.668,350.188 152.497 C 350.188 152.326,350.626 152.092,351.163 151.978 C 351.699 151.864,352.365 151.571,352.642 151.327 C 352.919 151.083,353.726 150.753,354.435 150.594 C 355.144 150.435,355.809 150.168,355.912 150.001 C 356.015 149.834,356.288 149.660,356.519 149.614 C 357.700 149.381,358.590 149.047,358.590 148.838 C 358.590 148.709,359.049 148.518,359.610 148.413 C 360.171 148.307,360.795 148.022,360.997 147.779 C 361.199 147.536,361.601 147.337,361.890 147.337 C 362.961 147.337,363.051 146.709,363.067 139.078 C 363.083 131.279,362.972 130.532,361.815 130.702 C 361.527 130.745,361.290 130.657,361.290 130.506 C 361.290 130.356,361.097 130.233,360.862 130.233 C 360.626 130.233,360.255 130.054,360.036 129.836 C 359.818 129.618,359.572 129.437,359.490 129.434 C 358.827 129.409,357.088 128.614,357.085 128.334 C 357.082 128.094,357.001 128.106,356.833 128.371 C 356.636 128.682,356.508 128.666,356.199 128.294 C 355.985 128.037,355.288 127.743,354.650 127.641 C 354.011 127.539,353.488 127.329,353.488 127.176 C 353.488 127.022,353.369 126.970,353.222 127.061 C 353.076 127.151,352.789 127.024,352.585 126.778 C 352.381 126.533,351.905 126.332,351.526 126.332 C 351.148 126.332,350.790 126.189,350.732 126.015 C 350.674 125.841,350.397 125.665,350.116 125.624 C 349.835 125.583,349.511 125.455,349.396 125.340 C 349.281 125.225,348.940 125.131,348.637 125.131 C 348.335 125.131,348.087 124.996,348.087 124.831 C 348.087 124.666,347.878 124.531,347.622 124.531 C 347.367 124.531,346.606 124.264,345.931 123.938 C 345.257 123.613,344.567 123.431,344.399 123.535 C 344.224 123.643,344.185 123.575,344.307 123.377 C 344.442 123.160,344.300 123.031,343.925 123.031 C 343.597 123.031,343.150 122.857,342.932 122.645 C 342.714 122.433,341.928 122.082,341.185 121.865 C 340.443 121.648,339.612 121.273,339.339 121.031 C 339.067 120.789,338.661 120.614,338.439 120.643 C 337.804 120.725,336.675 120.288,336.839 120.022 C 336.920 119.891,336.443 119.691,335.779 119.579 C 335.115 119.467,334.368 119.172,334.120 118.923 C 333.871 118.675,333.462 118.550,333.210 118.647 C 332.958 118.744,332.828 118.700,332.920 118.551 C 333.013 118.401,332.682 118.189,332.186 118.080 C 331.689 117.971,331.283 117.749,331.283 117.587 C 331.283 117.424,331.047 117.321,330.758 117.357 C 330.469 117.394,329.852 117.267,329.388 117.076 C 328.923 116.885,328.409 116.729,328.245 116.729 C 328.081 116.729,328.016 116.617,328.101 116.480 C 328.186 116.342,327.586 116.048,326.768 115.825 C 325.950 115.603,325.281 115.310,325.281 115.175 C 325.281 115.039,325.077 114.929,324.827 114.929 C 324.577 114.929,324.138 114.809,323.852 114.662 C 323.104 114.279,321.422 113.519,320.030 112.936 C 318.620 112.345,318.751 112.392,317.704 112.096 C 317.251 111.968,316.879 111.764,316.879 111.643 C 316.879 111.522,316.305 111.251,315.604 111.042 C 314.902 110.833,314.258 110.549,314.172 110.413 C 314.086 110.276,313.659 110.099,313.223 110.020 C 312.787 109.941,312.115 109.702,311.729 109.488 C 311.343 109.274,310.926 109.077,310.803 109.050 C 310.679 109.024,310.510 108.968,310.428 108.927 C 310.253 108.840,310.072 108.776,309.152 108.477 C 308.781 108.356,308.477 108.163,308.477 108.049 C 308.477 107.934,307.802 107.667,306.976 107.456 C 306.151 107.244,305.553 106.945,305.648 106.791 C 305.743 106.638,305.710 106.540,305.574 106.574 C 305.147 106.681,302.648 105.842,302.152 105.425 C 301.891 105.206,301.395 105.026,301.048 105.026 C 300.702 105.026,300.207 104.815,299.949 104.558 C 299.692 104.300,299.209 104.069,298.878 104.044 C 298.546 104.019,298.275 103.892,298.275 103.762 C 298.275 103.632,298.005 103.526,297.674 103.526 C 297.344 103.526,297.074 103.376,297.074 103.194 C 297.074 103.011,296.880 102.936,296.644 103.027 C 296.407 103.118,296.170 103.073,296.118 102.927 C 296.066 102.780,295.630 102.590,295.148 102.504 C 294.666 102.418,294.172 102.185,294.050 101.988 C 293.928 101.791,293.580 101.607,293.276 101.580 C 292.434 101.506,291.243 101.076,291.051 100.778 C 290.956 100.631,290.607 100.459,290.274 100.395 C 289.941 100.331,289.143 99.996,288.500 99.651 C 287.857 99.307,287.122 99.025,286.868 99.025 C 286.613 99.025,286.139 98.848,285.813 98.632 C 285.488 98.415,284.652 98.058,283.956 97.837 C 283.260 97.616,282.762 97.320,282.848 97.180 C 282.935 97.039,282.771 96.924,282.485 96.924 C 281.700 96.924,279.970 96.241,279.970 95.932 C 279.970 95.782,279.767 95.737,279.520 95.832 C 279.272 95.927,279.070 95.880,279.070 95.728 C 279.070 95.576,278.598 95.363,278.022 95.255 C 277.446 95.146,277.039 94.954,277.117 94.827 C 277.255 94.604,276.194 94.276,274.486 94.016 L 273.652 93.888 273.678 102.458 M181.670 134.659 C 181.794 134.782,182.188 134.913,182.546 134.950 C 184.197 135.118,184.671 135.258,184.790 135.616 C 184.892 135.922,184.973 135.918,185.183 135.593 C 185.397 135.261,185.494 135.257,185.698 135.573 C 185.836 135.787,186.511 135.984,187.198 136.012 C 187.885 136.039,188.447 136.168,188.447 136.298 C 188.447 136.428,189.055 136.534,189.797 136.534 C 190.540 136.534,191.148 136.672,191.148 136.840 C 191.148 137.016,191.465 137.066,191.898 136.957 C 192.340 136.846,192.648 136.898,192.648 137.083 C 192.648 137.256,192.884 137.401,193.173 137.405 C 195.065 137.436,195.349 137.525,195.349 138.090 C 195.349 138.409,195.484 138.587,195.649 138.485 C 195.814 138.383,195.949 138.442,195.949 138.617 C 195.949 138.792,195.951 139.001,195.953 139.083 C 195.955 139.164,196.360 140.025,196.853 140.996 C 197.346 141.966,197.749 142.901,197.749 143.073 C 197.749 143.245,197.857 143.431,197.989 143.486 C 198.271 143.604,201.423 149.918,201.349 150.217 C 201.322 150.329,201.465 150.523,201.669 150.649 C 201.872 150.774,201.957 151.087,201.859 151.343 C 201.636 151.925,199.179 151.719,198.088 151.027 C 197.696 150.779,197.468 150.724,197.580 150.907 C 197.693 151.089,197.650 151.238,197.485 151.238 C 197.320 151.238,197.113 151.121,197.024 150.978 C 196.936 150.835,196.523 150.756,196.106 150.802 C 195.690 150.847,195.349 150.762,195.349 150.611 C 195.349 150.461,195.011 150.338,194.599 150.338 C 194.186 150.338,193.848 150.203,193.848 150.038 C 193.848 149.872,193.705 149.737,193.531 149.737 C 193.356 149.737,193.284 149.853,193.372 149.994 C 193.459 150.135,193.198 150.187,192.793 150.110 C 192.381 150.031,192.140 149.831,192.248 149.657 C 192.363 149.471,192.295 149.435,192.080 149.568 C 191.637 149.841,188.747 149.182,188.747 148.807 C 188.747 148.659,188.511 148.539,188.222 148.542 C 187.768 148.546,187.758 148.590,188.147 148.870 C 188.521 149.139,188.505 149.164,188.047 149.016 C 187.745 148.917,187.374 148.837,187.222 148.837 C 187.071 148.837,186.947 148.530,186.947 148.154 C 186.947 147.778,186.760 147.204,186.532 146.878 C 186.304 146.553,186.085 146.152,186.046 145.986 C 186.007 145.821,185.856 145.374,185.710 144.992 C 185.565 144.610,185.446 144.171,185.446 144.016 C 185.446 143.862,185.322 143.736,185.170 143.736 C 185.017 143.736,184.730 143.230,184.531 142.611 C 184.333 141.992,184.001 141.283,183.794 141.035 C 183.405 140.571,183.036 139.587,183.075 139.118 C 183.087 138.972,182.984 138.769,182.846 138.668 C 182.428 138.362,181.494 136.534,181.753 136.530 C 181.887 136.527,181.840 136.426,181.650 136.304 C 181.461 136.183,181.258 135.814,181.200 135.484 C 181.143 135.154,180.893 134.792,180.645 134.680 C 180.308 134.527,180.352 134.470,180.820 134.455 C 181.164 134.443,181.547 134.535,181.670 134.659 " stroke="none" fill="#c4ac6c" fill-rule="evenodd"></path><path id="path1" d="M139.967 108.187 C 140.288 108.429,140.760 108.648,141.018 108.673 C 141.529 108.723,142.001 108.821,142.236 108.925 C 142.318 108.961,142.723 109.021,143.136 109.058 C 143.548 109.095,144.112 109.226,144.389 109.350 C 144.666 109.474,145.206 109.528,145.590 109.470 C 146.445 109.342,142.696 108.327,141.366 108.327 C 140.874 108.327,140.387 108.192,140.285 108.027 C 140.183 107.862,139.939 107.731,139.742 107.736 C 139.546 107.742,139.647 107.944,139.967 108.187 M188.243 110.128 C 188.243 111.200,188.298 111.639,188.364 111.103 C 188.431 110.566,188.431 109.689,188.364 109.152 C 188.298 108.616,188.243 109.055,188.243 110.128 M135.601 109.602 C 135.583 109.644,135.531 110.110,135.487 110.640 C 135.442 111.169,135.319 111.946,135.214 112.365 C 135.109 112.785,135.145 113.128,135.295 113.128 C 135.445 113.128,135.659 112.622,135.771 112.003 C 135.883 111.384,136.048 110.574,136.137 110.203 C 136.261 109.687,135.793 109.164,135.601 109.602 M134.426 115.398 C 134.054 116.377,134.047 117.418,134.415 117.191 C 134.569 117.096,134.691 116.784,134.686 116.498 C 134.681 116.213,134.750 115.675,134.838 115.304 C 135.057 114.387,134.787 114.449,134.426 115.398 M170.743 114.923 C 170.743 115.228,171.266 115.378,173.267 115.649 C 174.059 115.755,174.343 115.708,174.139 115.504 C 173.972 115.337,173.350 115.170,172.756 115.132 C 172.162 115.094,171.579 114.965,171.460 114.846 C 171.149 114.534,170.743 114.578,170.743 114.923 M177.001 116.493 C 176.704 116.703,176.773 116.742,177.255 116.637 C 177.618 116.558,177.959 116.621,178.011 116.778 C 178.063 116.935,178.339 116.974,178.624 116.865 C 178.908 116.756,179.077 116.562,178.998 116.435 C 178.797 116.110,177.488 116.147,177.001 116.493 M181.111 117.354 C 181.208 117.511,181.412 117.562,181.566 117.467 C 181.720 117.372,181.845 117.434,181.845 117.606 C 181.845 117.777,182.253 117.870,182.752 117.812 C 183.250 117.754,183.731 117.824,183.820 117.968 C 183.909 118.112,184.206 118.230,184.481 118.230 C 184.874 118.230,184.838 118.131,184.312 117.762 C 183.945 117.505,183.519 117.372,183.366 117.467 C 183.213 117.562,183.015 117.523,182.927 117.380 C 182.839 117.238,182.355 117.109,181.851 117.095 C 181.343 117.081,181.013 117.196,181.111 117.354 M133.920 118.230 C 134.007 118.560,133.955 118.830,133.805 118.830 C 133.656 118.830,133.533 119.032,133.533 119.280 C 133.533 119.973,134.041 119.813,134.244 119.055 C 134.515 118.047,134.472 117.629,134.099 117.629 C 133.911 117.629,133.833 117.894,133.920 118.230 M133.333 120.582 C 133.120 120.923,133.091 121.296,133.256 121.557 C 133.404 121.790,133.536 121.913,133.549 121.830 C 133.851 120.038,133.813 119.814,133.333 120.582 M132.815 122.607 C 132.521 123.371,132.603 123.624,133.083 123.439 C 133.578 123.249,133.688 122.562,133.265 122.300 C 133.117 122.209,132.914 122.347,132.815 122.607 M211.853 124.166 C 211.853 124.296,212.292 124.394,212.828 124.386 C 213.365 124.377,214.006 124.507,214.254 124.676 C 214.644 124.940,214.649 124.911,214.292 124.456 C 213.882 123.933,211.853 123.692,211.853 124.166 M135.634 124.849 C 135.634 125.024,135.769 125.083,135.934 124.981 C 136.099 124.879,136.234 124.939,136.234 125.114 C 136.234 125.288,136.369 125.431,136.534 125.431 C 136.699 125.431,136.834 125.229,136.834 124.981 C 136.834 124.731,136.567 124.531,136.234 124.531 C 135.904 124.531,135.634 124.674,135.634 124.849 M137.303 125.101 C 137.203 125.263,137.361 125.385,137.653 125.373 C 137.945 125.361,138.455 125.457,138.785 125.585 C 139.196 125.746,139.290 125.722,139.085 125.509 C 138.620 125.029,137.506 124.773,137.303 125.101 M216.857 125.047 C 216.769 125.187,216.925 125.312,217.201 125.324 C 217.478 125.335,217.941 125.446,218.230 125.570 C 218.549 125.707,218.755 125.666,218.755 125.463 C 218.755 125.281,218.563 125.131,218.329 125.131 C 218.095 125.131,217.704 125.055,217.459 124.961 C 217.215 124.867,216.944 124.906,216.857 125.047 M140.243 125.891 C 140.768 126.193,141.209 126.278,141.378 126.108 C 141.548 125.939,141.506 125.820,141.270 125.803 C 141.059 125.788,140.548 125.690,140.135 125.586 C 139.432 125.409,139.439 125.428,140.243 125.891 M221.020 126.006 C 221.538 126.506,223.112 126.528,222.806 126.032 C 222.704 125.866,222.196 125.731,221.678 125.731 C 221.099 125.731,220.845 125.838,221.020 126.006 M142.718 126.334 C 142.894 126.510,143.566 126.717,144.212 126.795 C 144.858 126.873,145.184 126.858,144.936 126.761 C 143.815 126.321,143.549 126.234,142.992 126.128 C 142.572 126.048,142.492 126.108,142.718 126.334 M146.890 127.237 C 146.993 127.404,147.204 127.464,147.358 127.369 C 147.511 127.274,147.637 127.347,147.637 127.532 C 147.637 127.716,147.786 127.775,147.969 127.662 C 148.201 127.519,148.178 127.379,147.894 127.199 C 147.330 126.841,146.661 126.867,146.890 127.237 M148.729 127.682 C 148.824 127.929,149.165 128.132,149.487 128.132 C 149.809 128.132,149.988 127.995,149.884 127.827 C 149.781 127.659,149.570 127.600,149.417 127.695 C 149.263 127.790,149.137 127.724,149.137 127.550 C 149.137 127.375,149.006 127.232,148.847 127.232 C 148.687 127.232,148.634 127.434,148.729 127.682 M228.957 127.864 C 228.957 128.047,229.161 128.118,229.410 128.023 C 229.659 127.927,230.233 127.999,230.685 128.183 C 231.138 128.367,231.710 128.547,231.958 128.583 C 232.206 128.620,232.543 128.684,232.708 128.727 C 233.506 128.930,234.212 128.726,233.758 128.423 C 233.511 128.257,232.903 128.143,232.408 128.169 C 231.913 128.195,231.128 128.063,230.663 127.874 C 229.595 127.441,228.957 127.438,228.957 127.864 M151.238 128.219 C 151.485 128.479,152.296 128.779,153.038 128.887 C 153.781 128.995,154.276 128.970,154.139 128.833 C 154.001 128.695,153.765 128.565,153.613 128.545 C 153.462 128.524,153.305 128.473,153.263 128.431 C 153.222 128.390,152.918 128.320,152.588 128.277 C 152.258 128.233,151.718 128.096,151.388 127.972 C 150.850 127.770,150.834 127.795,151.238 128.219 M236.608 129.334 C 236.380 129.703,237.201 130.057,237.773 129.838 C 238.000 129.751,238.346 129.838,238.541 130.031 C 238.813 130.301,238.847 130.256,238.689 129.840 C 238.575 129.542,238.297 129.369,238.071 129.456 C 237.845 129.543,237.659 129.483,237.659 129.323 C 237.659 128.939,236.847 128.948,236.608 129.334 M242.161 130.471 C 242.161 130.602,242.701 130.853,243.361 131.029 C 244.854 131.428,244.902 131.283,243.474 130.687 C 242.217 130.162,242.161 130.152,242.161 130.471 M246.962 131.733 C 246.962 131.898,247.240 132.033,247.580 132.033 C 247.919 132.033,248.114 131.898,248.012 131.733 C 247.910 131.568,247.632 131.433,247.394 131.433 C 247.156 131.433,246.962 131.568,246.962 131.733 M25.036 138.935 C 25.036 142.978,25.078 144.632,25.130 142.611 C 25.182 140.589,25.182 137.281,25.130 135.259 C 25.078 133.237,25.036 134.891,25.036 138.935 M248.761 132.152 C 249.225 132.616,250.322 132.617,249.937 132.153 C 249.764 131.944,249.363 131.793,249.046 131.817 C 248.672 131.845,248.572 131.963,248.761 132.152 M180.795 134.734 C 181.621 135.089,181.915 135.089,181.695 134.734 C 181.593 134.569,181.214 134.443,180.853 134.455 C 180.219 134.475,180.217 134.485,180.795 134.734 M182.296 135.034 C 182.189 135.207,182.467 135.332,182.953 135.329 C 183.608 135.326,183.695 135.260,183.346 135.034 C 182.769 134.661,182.526 134.661,182.296 135.034 M250.841 135.542 C 250.672 135.987,250.574 136.763,250.623 137.267 C 250.693 137.987,250.780 137.813,251.026 136.459 C 251.368 134.570,251.313 134.299,250.841 135.542 M131.029 136.381 C 130.795 136.615,130.520 136.722,130.418 136.620 C 130.316 136.518,130.233 136.570,130.233 136.735 C 130.233 137.124,132.714 137.079,133.004 136.684 C 133.144 136.492,133.226 136.507,133.229 136.724 C 133.231 136.911,133.511 137.137,133.851 137.226 C 134.193 137.315,134.424 137.254,134.368 137.088 C 134.313 136.924,134.191 136.833,134.097 136.887 C 134.003 136.940,133.702 136.799,133.429 136.572 C 133.157 136.346,132.933 136.241,132.933 136.340 C 132.933 136.439,132.600 136.393,132.193 136.238 C 131.653 136.033,131.339 136.071,131.029 136.381 M190.248 136.834 C 190.248 136.999,190.450 137.134,190.698 137.134 C 190.945 137.134,191.148 136.999,191.148 136.834 C 191.148 136.669,190.945 136.534,190.698 136.534 C 190.450 136.534,190.248 136.669,190.248 136.834 M191.566 137.185 C 191.421 137.420,191.512 137.474,191.839 137.348 C 192.108 137.245,192.409 137.290,192.506 137.447 C 192.604 137.605,192.954 137.734,193.284 137.734 C 193.614 137.734,193.804 137.605,193.707 137.447 C 193.609 137.290,193.331 137.237,193.089 137.330 C 192.846 137.423,192.648 137.349,192.648 137.166 C 192.648 136.726,191.842 136.740,191.566 137.185 M138.754 138.085 C 138.669 138.222,138.877 138.335,139.217 138.335 C 139.557 138.335,139.835 138.222,139.835 138.085 C 139.835 137.947,139.626 137.834,139.372 137.834 C 139.117 137.834,138.839 137.947,138.754 138.085 M129.505 138.835 C 129.420 139.055,129.535 139.235,129.760 139.235 C 129.984 139.235,130.237 139.055,130.322 138.835 C 130.406 138.615,130.292 138.435,130.067 138.435 C 129.842 138.435,129.589 138.615,129.505 138.835 M141.635 138.652 C 141.635 138.827,141.761 138.892,141.915 138.798 C 142.068 138.703,142.279 138.762,142.383 138.930 C 142.630 139.330,143.136 139.322,143.136 138.917 C 143.136 138.742,143.010 138.677,142.856 138.772 C 142.703 138.867,142.492 138.807,142.389 138.640 C 142.141 138.239,141.635 138.248,141.635 138.652 M249.879 139.610 C 249.797 140.146,249.655 140.886,249.564 141.254 C 249.474 141.622,249.526 142.001,249.681 142.097 C 249.836 142.193,249.983 142.027,250.008 141.728 C 250.033 141.430,250.069 141.026,250.087 140.831 C 250.105 140.637,250.220 140.378,250.341 140.256 C 250.654 139.943,250.617 138.635,250.295 138.635 C 250.148 138.635,249.961 139.074,249.879 139.610 M147.171 139.860 C 147.006 140.128,147.087 140.180,147.453 140.039 C 147.738 139.930,148.297 140.057,148.703 140.323 C 149.378 140.765,149.437 140.765,149.437 140.320 C 149.437 140.053,149.269 139.833,149.062 139.831 C 148.856 139.829,148.399 139.749,148.046 139.655 C 147.682 139.557,147.304 139.646,147.171 139.860 M155.739 141.603 C 155.739 141.936,156.662 142.313,156.898 142.076 C 156.994 141.981,156.873 141.777,156.630 141.624 C 156.069 141.269,155.739 141.261,155.739 141.603 M128.914 142.110 C 128.814 142.371,128.732 142.956,128.732 143.410 C 128.732 143.865,128.637 144.331,128.521 144.447 C 128.147 144.821,128.098 146.137,128.457 146.137 C 128.662 146.137,128.745 145.836,128.661 145.397 C 128.583 144.990,128.631 144.619,128.767 144.572 C 128.903 144.525,129.091 143.845,129.184 143.061 C 129.356 141.620,129.248 141.240,128.914 142.110 M159.044 142.527 C 158.677 142.759,158.703 142.812,159.194 142.823 C 160.456 142.854,161.306 143.000,161.704 143.255 C 161.997 143.442,162.075 143.397,161.972 143.103 C 161.889 142.867,161.481 142.710,161.032 142.742 C 160.597 142.773,160.240 142.672,160.240 142.517 C 160.240 142.157,159.620 142.162,159.044 142.527 M220.405 143.436 C 220.303 143.601,220.506 143.736,220.855 143.736 C 221.205 143.736,221.407 143.601,221.305 143.436 C 221.203 143.271,221.001 143.136,220.855 143.136 C 220.710 143.136,220.507 143.271,220.405 143.436 M222.206 143.808 C 222.888 144.210,224.156 144.353,224.156 144.027 C 224.156 143.908,223.734 143.727,223.218 143.623 C 221.847 143.349,221.527 143.408,222.206 143.808 M224.650 144.265 C 224.572 144.391,224.919 144.511,225.421 144.532 C 226.047 144.558,226.204 144.487,225.920 144.307 C 225.406 143.982,224.837 143.963,224.650 144.265 M248.783 144.861 C 248.756 145.737,248.767 145.675,248.456 146.757 C 248.229 147.551,248.253 147.635,248.623 147.328 C 248.861 147.131,248.983 146.852,248.895 146.709 C 248.807 146.566,248.859 146.210,249.011 145.918 C 249.163 145.625,249.178 145.116,249.046 144.786 C 248.817 144.217,248.803 144.221,248.783 144.861 M227.049 145.005 C 227.131 145.138,227.324 145.168,227.478 145.073 C 227.631 144.979,227.757 145.044,227.757 145.219 C 227.757 145.646,228.567 145.624,228.836 145.190 C 228.969 144.975,228.918 144.925,228.704 145.058 C 228.513 145.175,228.357 145.130,228.357 144.957 C 228.357 144.784,228.029 144.670,227.629 144.703 C 227.228 144.736,226.967 144.872,227.049 145.005 M229.857 145.357 C 229.857 145.423,230.296 145.624,230.833 145.803 C 231.725 146.101,231.758 146.090,231.225 145.682 C 230.689 145.271,229.857 145.074,229.857 145.357 M231.958 145.951 C 231.958 146.218,233.172 146.357,233.326 146.108 C 233.418 145.959,233.148 145.836,232.726 145.836 C 232.304 145.836,231.958 145.888,231.958 145.951 M127.873 147.262 C 127.921 147.716,127.856 148.256,127.728 148.462 C 127.599 148.672,127.637 148.837,127.814 148.837 C 127.989 148.837,128.137 148.803,128.143 148.762 C 128.444 146.774,128.442 146.437,128.134 146.437 C 127.934 146.437,127.824 146.787,127.873 147.262 M235.478 146.776 C 235.909 147.207,237.659 147.447,237.659 147.074 C 237.659 146.889,237.491 146.716,237.284 146.690 C 235.975 146.526,235.262 146.560,235.478 146.776 M239.760 147.605 C 239.760 147.881,240.470 148.237,241.022 148.237 C 241.211 148.237,241.186 148.059,240.960 147.787 C 240.553 147.296,239.760 147.175,239.760 147.605 M241.968 148.087 C 242.215 148.335,242.596 148.533,242.814 148.528 C 243.063 148.522,242.994 148.354,242.628 148.077 C 241.867 147.502,241.389 147.509,241.968 148.087 M243.961 148.527 C 244.374 148.855,244.910 149.127,245.153 149.131 C 245.678 149.139,244.757 148.454,243.811 148.133 C 243.328 147.969,243.358 148.046,243.961 148.527 M186.947 148.502 C 186.947 148.794,188.188 149.196,188.409 148.975 C 188.485 148.899,188.382 148.837,188.179 148.837 C 187.977 148.837,187.895 148.702,187.997 148.537 C 188.099 148.372,187.904 148.237,187.565 148.237 C 187.225 148.237,186.947 148.356,186.947 148.502 M246.515 149.132 C 246.459 149.222,246.805 149.312,247.284 149.331 C 247.762 149.351,248.086 149.256,248.002 149.121 C 247.838 148.855,246.681 148.864,246.515 149.132 M189.797 149.296 C 191.385 149.887,193.488 150.229,193.352 149.875 C 193.269 149.658,192.944 149.530,192.631 149.591 C 192.317 149.651,191.982 149.574,191.887 149.419 C 191.791 149.264,191.214 149.148,190.605 149.161 C 189.996 149.174,189.632 149.235,189.797 149.296 M127.152 149.930 C 126.477 151.053,127.110 153.190,128.132 153.241 C 128.710 153.270,128.912 153.222,128.582 153.134 C 127.509 152.848,127.285 152.482,127.527 151.409 C 127.745 150.445,127.477 149.390,127.152 149.930 M195.349 150.577 C 195.349 150.746,195.690 150.847,196.106 150.802 C 196.523 150.756,196.931 150.827,197.012 150.959 C 197.094 151.091,197.395 151.204,197.680 151.210 C 197.966 151.215,198.658 151.310,199.217 151.419 C 199.908 151.554,200.171 151.515,200.037 151.297 C 199.928 151.121,199.604 150.985,199.319 150.996 C 199.033 151.007,198.395 150.918,197.899 150.798 C 195.978 150.334,195.349 150.279,195.349 150.577 M130.412 153.757 C 130.522 154.043,130.925 154.236,131.391 154.225 C 131.827 154.215,132.554 154.297,133.008 154.408 C 133.557 154.541,133.833 154.490,133.833 154.253 C 133.833 154.035,133.603 153.971,133.233 154.089 C 132.903 154.193,132.633 154.157,132.633 154.009 C 132.633 153.860,132.464 153.733,132.258 153.726 C 132.052 153.719,131.510 153.614,131.054 153.493 C 130.366 153.309,130.257 153.354,130.412 153.757 M134.938 154.723 C 135.026 154.952,135.286 155.139,135.516 155.139 C 136.140 155.139,136.021 154.631,135.356 154.458 C 134.951 154.352,134.826 154.431,134.938 154.723 M136.234 154.784 C 136.234 155.282,136.856 155.543,137.163 155.175 C 137.315 154.993,137.349 154.909,137.239 154.989 C 137.129 155.068,136.858 154.983,136.637 154.799 C 136.362 154.571,136.234 154.566,136.234 154.784 M141.332 156.337 C 141.769 156.607,144.506 156.709,144.243 156.446 C 144.131 156.334,143.356 156.218,142.519 156.187 C 141.683 156.156,141.149 156.224,141.332 156.337 M146.137 157.272 C 145.768 157.537,145.791 157.562,146.263 157.407 C 146.590 157.300,146.939 157.381,147.071 157.596 C 147.199 157.803,147.409 157.867,147.537 157.739 C 148.052 157.225,146.788 156.803,146.137 157.272 M226.986 157.298 C 226.862 157.514,226.871 157.589,227.006 157.467 C 227.141 157.345,227.455 157.412,227.703 157.617 C 228.071 157.920,228.128 157.909,228.012 157.558 C 227.816 156.966,227.259 156.825,226.986 157.298 M149.437 157.806 C 149.437 158.066,151.432 158.602,151.945 158.480 C 152.086 158.446,152.390 158.575,152.620 158.766 C 152.850 158.957,153.038 159.039,153.038 158.947 C 153.038 158.856,153.452 158.900,153.958 159.045 C 154.634 159.239,154.847 159.214,154.759 158.950 C 154.693 158.752,154.380 158.590,154.064 158.590 C 153.747 158.590,153.413 158.488,153.320 158.364 C 153.227 158.239,152.593 158.100,151.911 158.054 C 151.228 158.009,150.572 157.874,150.454 157.755 C 150.149 157.451,149.437 157.486,149.437 157.806 M230.158 158.237 C 230.158 158.384,230.344 158.432,230.571 158.345 C 230.799 158.258,231.136 158.338,231.321 158.523 C 231.506 158.708,231.658 158.775,231.658 158.671 C 231.658 158.567,232.074 158.601,232.584 158.747 C 233.388 158.978,233.460 158.954,233.136 158.562 C 232.930 158.315,232.585 158.180,232.370 158.263 C 232.154 158.346,231.899 158.286,231.803 158.131 C 231.586 157.780,230.158 157.872,230.158 158.237 M156.491 159.337 C 156.300 159.645,156.701 159.867,157.539 159.916 C 157.787 159.930,158.429 159.996,158.965 160.061 C 159.502 160.127,160.020 160.054,160.115 159.899 C 160.211 159.744,159.842 159.632,159.289 159.650 C 158.167 159.685,157.556 159.577,157.035 159.251 C 156.840 159.130,156.595 159.168,156.491 159.337 M236.916 159.600 C 237.390 160.047,239.160 160.334,239.160 159.964 C 239.160 159.786,238.923 159.630,238.635 159.618 C 238.346 159.605,237.775 159.534,237.366 159.459 C 236.904 159.374,236.733 159.428,236.916 159.600 M161.440 160.476 C 161.440 160.893,162.195 161.140,163.465 161.140 C 164.687 161.140,164.561 160.759,163.310 160.674 C 162.860 160.643,162.254 160.519,161.965 160.397 C 161.668 160.272,161.440 160.306,161.440 160.476 M240.960 160.579 C 240.577 160.850,240.585 160.873,241.016 160.735 C 241.294 160.647,241.572 160.726,241.634 160.911 C 241.756 161.278,242.761 161.014,242.761 160.615 C 242.761 160.244,241.470 160.218,240.960 160.579 M244.919 161.627 C 245.304 162.012,245.342 162.293,245.102 162.981 C 244.936 163.458,244.872 164.036,244.960 164.265 C 245.048 164.495,245.028 164.774,244.916 164.887 C 244.803 164.999,244.694 165.215,244.674 165.366 C 244.653 165.518,244.609 165.675,244.576 165.716 C 244.353 165.997,244.315 167.142,244.529 167.142 C 244.674 167.142,244.878 166.703,244.982 166.167 C 245.085 165.630,245.247 164.854,245.341 164.441 C 245.778 162.522,245.520 161.140,244.725 161.140 C 244.564 161.140,244.651 161.359,244.919 161.627 M166.842 161.747 C 166.842 162.070,168.638 162.290,168.823 161.990 C 168.908 161.853,168.801 161.723,168.585 161.702 C 168.369 161.681,167.888 161.632,167.517 161.593 C 167.146 161.554,166.842 161.624,166.842 161.747 M170.443 162.480 C 170.443 162.771,170.718 162.941,171.193 162.941 C 171.605 162.941,171.943 162.783,171.943 162.591 C 171.943 162.398,171.858 162.326,171.753 162.430 C 171.649 162.534,171.312 162.485,171.003 162.319 C 170.569 162.087,170.443 162.123,170.443 162.480 M193.998 167.742 C 194.329 167.884,194.869 167.996,195.199 167.991 C 195.681 167.984,195.652 167.935,195.049 167.742 C 194.023 167.413,193.234 167.413,193.998 167.742 M198.650 168.642 C 198.300 168.868,198.388 168.934,199.042 168.938 C 199.529 168.940,199.807 168.815,199.700 168.642 C 199.470 168.270,199.226 168.270,198.650 168.642 M201.516 169.325 C 201.695 169.792,203.751 170.003,203.751 169.554 C 203.751 169.384,203.447 169.296,203.076 169.356 C 202.704 169.416,202.167 169.345,201.882 169.197 C 201.502 169.000,201.404 169.034,201.516 169.325 M243.861 169.442 C 243.751 169.552,243.677 169.991,243.696 170.418 C 243.724 171.041,243.759 171.076,243.878 170.593 C 243.959 170.263,244.163 169.824,244.330 169.617 C 244.647 169.228,244.231 169.072,243.861 169.442 M205.538 170.249 C 205.966 170.677,206.809 170.765,206.677 170.367 C 206.616 170.187,206.266 170.018,205.899 169.990 C 205.442 169.957,205.327 170.039,205.538 170.249 M208.011 170.602 C 208.310 170.900,209.470 171.014,209.293 170.727 C 209.196 170.571,208.832 170.443,208.484 170.443 C 208.137 170.443,207.924 170.514,208.011 170.602 M210.053 171.343 C 210.640 171.722,211.253 171.722,211.253 171.343 C 211.253 171.178,210.881 171.045,210.428 171.047 C 209.785 171.051,209.702 171.116,210.053 171.343 M243.168 172.313 C 242.838 172.846,242.815 173.743,243.130 173.743 C 243.278 173.743,243.360 173.507,243.312 173.218 C 243.265 172.929,243.332 172.524,243.461 172.318 C 243.590 172.112,243.629 171.943,243.546 171.943 C 243.464 171.943,243.293 172.109,243.168 172.313 M235.403 176.754 C 235.304 176.914,235.468 177.056,235.766 177.070 C 236.065 177.085,236.782 177.144,237.359 177.201 C 238.005 177.266,238.236 177.214,237.959 177.066 C 237.171 176.647,235.589 176.453,235.403 176.754 M241.915 177.363 C 241.697 177.715,241.598 178.082,241.695 178.179 C 241.985 178.469,242.525 177.745,242.414 177.216 C 242.327 176.804,242.246 176.828,241.915 177.363 M239.685 177.556 C 240.056 177.628,240.360 177.820,240.360 177.983 C 240.360 178.146,240.497 178.195,240.665 178.091 C 241.183 177.771,240.668 177.342,239.817 177.385 C 239.110 177.421,239.094 177.442,239.685 177.556 " stroke="none" fill="#c8ac6c" fill-rule="evenodd"></path></g></svg>